<svg width="34" height="49" viewBox="0 0 34 49" fill="none" xmlns="http://www.w3.org/2000/svg">
<path d="M0 24.3325C0 18.8097 4.47715 14.3325 10 14.3325H24C29.5228 14.3325 34 18.8097 34 24.3325V38.3325C34 43.8553 29.5228 48.3325 24 48.3325H10C4.47715 48.3325 0 43.8553 0 38.3325V24.3325Z" fill="#DFC2A4"/>
<path d="M16.464 37.5565C18.832 37.5565 20.864 36.3085 20.864 34.0845C20.864 32.5485 19.888 31.5885 18.576 31.1885V31.1085C19.84 30.5965 20.48 29.6685 20.48 28.4845C20.48 26.3565 18.864 25.2045 16.4 25.2045C14.992 25.2045 13.808 25.7485 12.704 26.6765L14.144 28.4205C14.864 27.7805 15.472 27.4285 16.272 27.4285C17.152 27.4285 17.632 27.8765 17.632 28.6925C17.632 29.6365 16.992 30.2445 14.96 30.2445V32.2605C17.456 32.2605 18 32.8685 18 33.8925C18 34.7885 17.28 35.2525 16.176 35.2525C15.248 35.2525 14.416 34.7725 13.696 34.1005L12.384 35.8925C13.248 36.9005 14.576 37.5565 16.464 37.5565Z" fill="black"/>
<path fill-rule="evenodd" clip-rule="evenodd" d="M10.4933 15.6592C10.4933 15.8802 10.5811 16.0921 10.7374 16.2484C10.8937 16.4047 11.1057 16.4925 11.3267 16.4925H22.6742C22.8952 16.4925 23.1071 16.4047 23.2634 16.2484C23.4197 16.0921 23.5075 15.8802 23.5075 15.6592V14.6175H10.4933V15.6592ZM23.635 6.20417L20.4267 7.8625L17.7317 3.71667C17.6525 3.59474 17.544 3.49454 17.4163 3.42518C17.2885 3.35581 17.1454 3.31948 17 3.31948C16.8546 3.31948 16.7115 3.35581 16.5837 3.42518C16.456 3.49454 16.3475 3.59474 16.2683 3.71667L13.5733 7.8625L10.365 6.20417C10.2188 6.12872 10.0543 6.09611 9.89034 6.11008C9.72641 6.12406 9.56977 6.18405 9.43845 6.28315C9.30712 6.38225 9.20646 6.51643 9.14806 6.67023C9.08966 6.82404 9.07589 6.99121 9.10833 7.1525L10.3667 13.3675H23.6333L24.8917 7.1525C25.0375 6.43417 24.2858 5.8675 23.635 6.20417ZM17 2.61667C17.347 2.61667 17.6798 2.47882 17.9251 2.23346C18.1705 1.9881 18.3083 1.65532 18.3083 1.30833C18.3083 0.961342 18.1705 0.628562 17.9251 0.383202C17.6798 0.137842 17.347 0 17 0C16.653 0 16.3202 0.137842 16.0749 0.383202C15.8295 0.628562 15.6917 0.961342 15.6917 1.30833C15.6917 1.65532 15.8295 1.9881 16.0749 2.23346C16.3202 2.47882 16.653 2.61667 17 2.61667ZM25.6917 3.32C25.3447 3.32 25.0119 3.45784 24.7665 3.7032C24.5212 3.94856 24.3833 4.28134 24.3833 4.62833C24.3833 4.97532 24.5212 5.3081 24.7665 5.55346C25.0119 5.79882 25.3447 5.93667 25.6917 5.93667C26.0387 5.93667 26.3714 5.79882 26.6168 5.55346C26.8622 5.3081 27 4.97532 27 4.62833C27 4.28134 26.8622 3.94856 26.6168 3.7032C26.3714 3.45784 26.0387 3.32 25.6917 3.32ZM9.6175 4.62833C9.6175 4.28134 9.47966 3.94856 9.2343 3.7032C8.98894 3.45784 8.65616 3.32 8.30917 3.32C7.96218 3.32 7.6294 3.45784 7.38404 3.7032C7.13868 3.94856 7.00083 4.28134 7.00083 4.62833C7.00083 4.97532 7.13868 5.3081 7.38404 5.55346C7.6294 5.79882 7.96218 5.93667 8.30917 5.93667C8.65616 5.93667 8.98894 5.79882 9.2343 5.55346C9.47966 5.3081 9.6175 4.97532 9.6175 4.62833Z" fill="#DFC2A4"/>
</svg>
