<svg width="400" height="400" viewBox="0 0 400 400" fill="none" xmlns="http://www.w3.org/2000/svg">
<path d="M302.16 254.92C302.18 254.734 302.18 254.546 302.16 254.36C301.777 254.818 301.301 255.189 300.763 255.448C300.224 255.707 299.637 255.847 299.04 255.86C298.913 255.86 298.791 255.809 298.701 255.719C298.611 255.629 298.56 255.507 298.56 255.38C298.56 255.253 298.611 255.131 298.701 255.041C298.791 254.951 298.913 254.9 299.04 254.9C299.636 254.862 300.196 254.607 300.617 254.183C301.037 253.759 301.287 253.196 301.32 252.6C301.314 252.473 301.348 252.348 301.416 252.24C301.483 252.133 301.583 252.049 301.7 252C302.8 251.52 303.24 254 303.02 255.12C302.964 255.196 302.888 255.254 302.8 255.287C302.711 255.319 302.616 255.325 302.524 255.304C302.432 255.283 302.349 255.235 302.284 255.167C302.22 255.098 302.176 255.013 302.16 254.92ZM296.38 252.58C296.86 252.86 297.26 252.84 297.26 253.32C297.266 253.465 297.214 253.607 297.117 253.715C297.02 253.823 296.885 253.89 296.74 253.9C296.424 253.852 296.121 253.741 295.849 253.572C295.578 253.404 295.343 253.182 295.16 252.92C295.118 252.792 295.112 252.655 295.144 252.524C295.176 252.393 295.244 252.274 295.34 252.18C295.34 252.18 296.3 250.6 296.44 250.4C296.58 250.2 297.36 249.88 297.56 250.28C297.76 250.68 297.48 250.58 296.38 252.58ZM298.72 247.08C298.855 246.999 299.018 246.974 299.171 247.011C299.325 247.049 299.457 247.145 299.54 247.28L300.32 248.34C300.388 248.457 300.423 248.59 300.422 248.726C300.421 248.861 300.384 248.993 300.315 249.11C300.245 249.226 300.146 249.321 300.028 249.387C299.909 249.452 299.775 249.484 299.64 249.48C299.04 249.48 298.92 248.94 298.7 248.4C298.48 247.86 298.2 247.38 298.72 247.08ZM294.3 250.84C293.76 250.6 293.88 250.12 293.6 249.38C293.52 249.247 293.497 249.089 293.534 248.939C293.572 248.789 293.667 248.66 293.8 248.58C293.933 248.5 294.091 248.477 294.241 248.514C294.391 248.552 294.52 248.647 294.6 248.78C295.04 249.46 295.52 249.64 295.44 250.22C295.424 250.346 295.378 250.466 295.307 250.57C295.235 250.675 295.14 250.761 295.029 250.822C294.917 250.882 294.793 250.915 294.666 250.919C294.54 250.922 294.414 250.895 294.3 250.84ZM300 246.8C299.867 246.373 299.487 246.233 298.86 246.38C298.52 246.38 298.32 246.14 298.28 245.78C298.1 244.5 300.44 244.5 301.1 246.4C301.153 246.546 301.146 246.707 301.08 246.847C301.015 246.988 300.896 247.097 300.75 247.15C300.604 247.203 300.443 247.196 300.302 247.13C300.162 247.065 300.053 246.946 300 246.8ZM313.3 262.7C313.592 262.757 313.894 262.747 314.182 262.672C314.471 262.598 314.739 262.459 314.967 262.268C315.195 262.076 315.377 261.836 315.501 261.564C315.624 261.293 315.685 260.998 315.68 260.7C316.12 259 317.96 259.04 319.36 260.06C319.468 260.149 319.541 260.274 319.564 260.412C319.587 260.55 319.56 260.692 319.487 260.811C319.414 260.931 319.3 261.02 319.166 261.062C319.033 261.104 318.888 261.096 318.76 261.04C317.16 260.02 316.92 260.56 316.76 261.38C316.22 264.46 312.24 264.48 312.54 263.16C312.559 263.079 312.593 263.003 312.642 262.936C312.691 262.869 312.752 262.812 312.823 262.77C312.894 262.727 312.972 262.699 313.054 262.687C313.136 262.675 313.22 262.679 313.3 262.7ZM123.14 260.8C122.22 260.8 122.38 259.74 122.3 258.46C122.294 258.331 122.339 258.204 122.425 258.107C122.511 258.01 122.631 257.95 122.76 257.94C123.42 257.94 123.32 258.64 123.84 259.66C123.909 259.779 123.944 259.914 123.942 260.051C123.941 260.188 123.902 260.322 123.83 260.439C123.758 260.556 123.656 260.651 123.535 260.715C123.413 260.778 123.277 260.808 123.14 260.8ZM114 254.48C115.62 255.2 111.02 256.48 114.72 268.84C114.745 268.921 114.754 269.007 114.745 269.092C114.737 269.177 114.713 269.259 114.673 269.334C114.592 269.486 114.454 269.6 114.29 269.65C114.126 269.7 113.948 269.683 113.796 269.603C113.644 269.522 113.53 269.384 113.48 269.22C111.552 264.595 111.501 259.401 113.34 254.74C113.366 254.679 113.404 254.625 113.451 254.579C113.499 254.533 113.555 254.497 113.616 254.473C113.677 254.449 113.743 254.437 113.809 254.438C113.875 254.439 113.94 254.454 114 254.48ZM103.14 76.62C102.655 76.858 102.11 76.9452 101.576 76.8704C101.041 76.7955 100.541 76.562 100.14 76.2C99.4142 75.5767 98.8106 74.8239 98.3599 73.98C98.291 73.8713 98.2681 73.7396 98.2962 73.6139C98.3243 73.4883 98.4012 73.379 98.51 73.31C98.6187 73.241 98.7504 73.2181 98.876 73.2462C99.0017 73.2744 99.111 73.3513 99.1799 73.46C99.5184 74.1091 100.04 74.6446 100.68 75.0001C101.32 75.3556 102.05 75.5155 102.78 75.46C102.909 75.4731 103.031 75.5238 103.131 75.6058C103.231 75.6877 103.305 75.7974 103.343 75.921C103.382 76.0446 103.383 76.1768 103.347 76.3011C103.311 76.4254 103.239 76.5363 103.14 76.62ZM105.26 94.6C104.36 94.6 100.26 91.16 99.66 90.6C97.9947 89.1911 96.4432 87.653 95.0199 86C94.9726 85.9569 94.9349 85.9044 94.909 85.8458C94.8832 85.7873 94.8698 85.724 94.8698 85.66C94.8698 85.596 94.8832 85.5327 94.909 85.4742C94.9349 85.4156 94.9726 85.3631 95.0199 85.32C95.8799 84.56 95.74 87 105.56 93.32C105.692 93.3905 105.798 93.5028 105.86 93.6394C105.922 93.7761 105.937 93.9294 105.903 94.0754C105.868 94.2215 105.787 94.3522 105.67 94.4471C105.554 94.5419 105.41 94.5957 105.26 94.6ZM248.18 13.68C248.124 13.5202 248.107 13.3492 248.13 13.1814C248.154 13.0136 248.217 12.8539 248.315 12.7157C248.413 12.5774 248.543 12.4647 248.693 12.3869C248.844 12.309 249.011 12.2684 249.18 12.2684C249.349 12.2684 249.516 12.309 249.667 12.3869C249.817 12.4647 249.947 12.5774 250.045 12.7157C250.143 12.8539 250.206 13.0136 250.23 13.1814C250.253 13.3492 250.236 13.5202 250.18 13.68C250.236 13.8398 250.253 14.0108 250.23 14.1786C250.206 14.3464 250.143 14.5061 250.045 14.6443C249.947 14.7826 249.817 14.8953 249.667 14.9731C249.516 15.051 249.349 15.0916 249.18 15.0916C249.011 15.0916 248.844 15.051 248.693 14.9731C248.543 14.8953 248.413 14.7826 248.315 14.6443C248.217 14.5061 248.154 14.3464 248.13 14.1786C248.107 14.0108 248.124 13.8398 248.18 13.68ZM194.78 12.6C195.039 12.6354 195.276 12.7633 195.447 12.9601C195.619 13.1568 195.713 13.409 195.713 13.67C195.713 13.931 195.619 14.1832 195.447 14.3799C195.276 14.5767 195.039 14.7046 194.78 14.74C194.521 14.7046 194.284 14.5767 194.113 14.3799C193.941 14.1832 193.847 13.931 193.847 13.67C193.847 13.409 193.941 13.1568 194.113 12.9601C194.284 12.7633 194.521 12.6354 194.78 12.6ZM120 132.58C121.1 134 118.84 136.28 118 137.44C116.679 139.182 114.868 140.491 112.8 141.2C112.361 141.173 111.933 141.057 111.54 140.86C109.331 139.414 107.22 137.824 105.22 136.1C105.014 135.861 104.901 135.556 104.901 135.24C104.901 134.924 105.014 134.619 105.22 134.38C105.22 134.38 108.46 128.88 109.8 128.38C111.753 127.847 113.836 128.061 115.64 128.98C117.188 130.06 118.646 131.264 120 132.58ZM118.64 133.08C115.02 130.08 114.64 129.34 111.54 129.34C113.26 130.56 116.74 133.34 116.76 133.34C117.002 133.482 117.213 133.671 117.38 133.895C117.548 134.12 117.669 134.376 117.736 134.648C117.803 134.92 117.815 135.203 117.771 135.48C117.727 135.757 117.628 136.022 117.48 136.26C117.813 135.912 118.108 135.53 118.36 135.12C119 134.24 119.36 133.64 118.68 133.08H118.64ZM111.6 136C111.18 136.46 110.28 137.32 109.74 137.78C112.44 139.78 113.06 139.62 113.16 139.58C114.467 138.293 115.542 136.791 116.34 135.14C115.663 134.218 114.839 133.414 113.9 132.76C113.54 133.36 113.14 133.98 112.72 134.58C114.26 136 113.58 136.9 111.6 136ZM108.6 136.94C109.325 136.499 109.951 135.914 110.44 135.22C109.1 133.88 109.42 132.62 111.54 133.78C111.96 133.16 112.36 132.52 112.76 131.9C112.02 131.32 110.4 129.9 109.86 129.52C108.385 131.273 107.11 133.184 106.06 135.22C106.44 135.62 108.12 136.7 108.6 137.02V136.94Z" fill="black"/>
<path d="M62.6006 369.831L60.8606 368.611C60.3606 368.251 61.0005 368.391 67.4005 355.891C64.2459 352.893 62.2728 348.862 61.8405 344.531C61.1005 336.151 61.3006 312.911 60.9606 293.631C60.8006 283.631 60.4406 266.151 60.9606 261.871C61.4806 258.071 62.4606 250.231 68.9606 247.611C66.916 246.061 65.327 243.988 64.3606 241.611C63.5607 238.367 63.0322 235.062 62.7805 231.731C62.3405 217.231 60.2606 167.471 61.6406 155.111C62.2806 149.351 62.6406 145.871 65.1606 142.971C68.5006 138.971 82.0805 135.171 92.5405 135.331C90.9345 133.979 89.6439 132.292 88.7594 130.388C87.8749 128.485 87.4179 126.41 87.4206 124.311C87.0606 124.311 87.1806 124.311 86.5206 119.231C78.8606 111.231 76.5205 104.591 79.3405 99.0109L77.9806 98.1509C77.9284 98.0895 77.8998 98.0115 77.8998 97.9309C77.8998 97.8504 77.9284 97.7724 77.9806 97.7109C83.5606 89.8309 84.1206 88.5909 85.5406 87.1109C87.2355 85.2935 89.3507 83.9199 91.7005 83.1109C91.5291 82.6915 91.4493 82.2403 91.4664 81.7875C91.4835 81.3347 91.5972 80.8909 91.7999 80.4856C92.0025 80.0803 92.2894 79.723 92.6413 79.4377C92.9933 79.1523 93.4021 78.9454 93.8405 78.8309C91.7005 74.0309 91.6405 74.4509 90.4405 73.7509C89.8402 73.4178 89.396 72.8607 89.2049 72.2012C89.0138 71.5417 89.0913 70.8335 89.4205 70.2309C88.5104 68.4396 87.9858 66.4774 87.8806 64.4709C87.6406 58.9309 94.7805 53.1309 100.121 55.9109C102.38 54.9608 104.851 54.6295 107.281 54.9509C109.921 55.2109 111.281 55.5709 111.881 56.5109C112.981 58.0909 111.281 60.0109 110.101 61.2309C109.581 61.7709 109.641 61.7109 107.561 63.9909C107.805 64.0443 108.041 64.1318 108.261 64.2509C108.733 64.817 109.05 65.4967 109.18 66.2227C109.31 66.9488 109.248 67.6961 109.001 68.3909C109.744 70.1427 109.982 72.0676 109.689 73.9478C109.396 75.8281 108.582 77.5888 107.341 79.0309C108.039 79.3739 108.664 79.8494 109.181 80.4309C112.261 83.4709 126.201 89.7109 125.921 90.5909L125.501 91.7909C125.861 92.0709 126.641 92.7109 127.121 93.1509C138.661 82.7309 138.021 82.7509 138.861 82.7509C139.101 82.7509 139.481 82.7509 140.121 83.4309C140.541 82.8509 140.341 81.9109 140.521 81.0909C140.665 80.5633 140.942 80.0811 141.324 79.69C141.707 79.299 142.183 79.0118 142.707 78.8557C143.232 78.6996 143.787 78.6797 144.321 78.7978C144.856 78.9159 145.351 79.1683 145.761 79.5309C151.041 72.0109 188.461 20.7309 192.601 15.4109C192.346 14.9342 192.2 14.4074 192.173 13.8679C192.145 13.3284 192.237 12.7894 192.441 12.2893C192.645 11.7891 192.957 11.3401 193.354 10.974C193.751 10.6079 194.224 10.3337 194.739 10.171C195.255 10.0082 195.799 9.96088 196.335 10.0323C196.87 10.1037 197.383 10.2922 197.838 10.5842C198.292 10.8763 198.677 11.2648 198.964 11.7223C199.251 12.1797 199.435 12.6948 199.501 13.2309C206.281 13.2309 241.721 13.0309 246.601 12.9709C246.746 12.3238 247.06 11.7268 247.512 11.2412C247.963 10.7556 248.536 10.3989 249.171 10.2075C249.806 10.0162 250.481 9.9972 251.125 10.1524C251.77 10.3077 252.362 10.6316 252.841 11.0909C253.225 11.4937 253.517 11.9743 253.699 12.5002C253.881 13.0261 253.948 13.5849 253.895 14.1389C253.842 14.6928 253.67 15.2288 253.392 15.7106C253.113 16.1923 252.734 16.6085 252.281 16.9309C252.281 16.9309 252.481 43.6909 252.461 46.5909C254.641 46.5909 255.081 49.0509 255.041 51.2309C255.321 58.0509 252.921 57.8709 252.861 60.1909C252.879 60.9442 253.146 61.6701 253.62 62.256C254.094 62.8419 254.748 63.2549 255.481 63.4309C256.181 63.6711 256.937 63.6945 257.65 63.4983C258.364 63.3021 259.002 62.8952 259.481 62.3309C260.701 59.6509 255.781 58.3309 258.121 52.1909C258.171 52.0439 258.271 51.9187 258.403 51.8362C258.535 51.7537 258.691 51.7189 258.845 51.7377C259 51.7564 259.143 51.8275 259.251 51.9391C259.36 52.0507 259.426 52.196 259.441 52.3509C259.741 56.0109 264.261 57.4909 264.481 61.4309C272.121 63.4309 292.101 67.4309 294.481 67.8709C297.081 65.1909 299.781 68.5109 299.481 71.7309C301.721 72.3909 308.341 73.0909 311.941 77.2309C316.881 82.9109 316.461 90.6509 316.901 97.7309C318.261 126.151 317.041 143.151 317.041 154.311C317.041 159.071 316.881 163.971 316.381 168.791C315.701 175.471 312.801 179.111 306.381 180.931C300.921 182.071 282.521 185.031 282.381 185.071C280.264 185.129 278.214 185.827 276.501 187.071C274.941 188.591 275.981 189.851 277.141 191.291C285.781 201.951 274.421 218.311 261.361 218.311C255.361 218.311 246.181 212.971 241.361 204.771C240.318 202.688 239.803 200.38 239.861 198.051C239.546 195.412 239.954 192.737 241.041 190.311C228.741 192.531 209.521 199.351 203.881 178.591C203.881 178.371 204.081 162.011 204.081 161.811C204.221 153.811 204.281 151.991 206.081 150.451C207.103 149.604 208.344 149.063 209.661 148.891C213.881 148.131 215.661 150.891 219.481 151.391C238.681 153.951 236.801 121.391 223.961 124.111C219.381 125.031 215.141 130.451 211.281 129.111C206.821 127.591 205.821 123.111 204.561 121.451C204.261 121.091 203.321 95.6709 203.661 94.0709C203.661 94.0709 204.601 86.8709 213.661 84.5909C213.401 82.9403 213.58 81.2503 214.181 79.6909C214.472 79.2816 214.87 78.9591 215.33 78.7576C215.791 78.5562 216.297 78.4834 216.796 78.547C217.295 78.6106 217.767 78.8083 218.162 79.1189C218.557 79.4295 218.861 79.8415 219.041 80.3109C230.041 74.8509 239.181 70.1109 247.741 65.4309C246.982 64.5382 246.483 63.4551 246.296 62.2987C246.109 61.1424 246.242 59.957 246.681 58.8709C247.002 58.1685 247.39 57.4987 247.841 56.8709C249.981 53.6909 248.981 53.2909 249.101 50.4509C249.058 49.6622 249.25 48.8785 249.652 48.1987C250.054 47.5189 250.649 46.9734 251.361 46.6309C251.361 43.5909 251.141 20.6309 251.121 17.2909C250.627 17.4168 250.112 17.4382 249.609 17.3537C249.107 17.2691 248.627 17.0806 248.202 16.8C247.776 16.5195 247.414 16.1532 247.138 15.7246C246.863 15.2959 246.679 14.8144 246.601 14.3109C239.901 14.4109 204.381 14.5509 199.461 14.5709C199.302 15.2022 198.98 15.7808 198.528 16.2489C198.075 16.717 197.508 17.0582 196.882 17.2383C196.257 17.4185 195.595 17.4314 194.963 17.2756C194.331 17.1199 193.751 16.8011 193.281 16.3509C189.281 22.0709 149.181 76.9309 147.021 79.9109C149.401 80.3509 150.161 82.8509 149.021 83.5109C149.048 83.9057 148.919 84.2955 148.66 84.5951C148.402 84.8948 148.035 85.0802 147.641 85.1109C147.601 85.3436 147.508 85.564 147.369 85.7551C147.231 85.9462 147.05 86.1029 146.841 86.2131C146.633 86.3233 146.401 86.384 146.165 86.3906C145.929 86.3971 145.695 86.3494 145.481 86.2509C145.276 86.7948 144.963 87.2914 144.561 87.7109C144.746 88.0159 144.836 88.3697 144.818 88.7263C144.801 89.083 144.676 89.4261 144.461 89.7109C140.701 96.9109 136.201 104.651 128.801 106.291C127.058 106.641 125.258 106.587 123.541 106.131C121.681 108.011 120.441 109.271 119.881 109.791C122.141 115.151 122.401 114.851 121.881 115.171C124.521 116.291 126.461 117.451 129.361 118.931C135.361 122.011 139.621 124.171 143.081 128.331C146.353 127.548 149.718 127.218 153.081 127.351C168.741 128.031 170.441 137.851 171.081 142.591C171.377 145.288 171.424 148.006 171.221 150.711C171.221 150.711 170.721 163.731 170.581 166.911C171.941 165.336 173.759 164.224 175.781 163.731C204.101 158.631 207.041 198.311 182.121 199.271C175.581 199.271 173.941 196.451 172.021 198.591C166.021 207.531 173.581 223.131 169.081 234.591C168.121 237.334 166.384 239.739 164.081 241.511C167.721 242.491 169.941 246.151 170.701 252.411C171.944 260.475 172.446 268.636 172.201 276.791C178.201 270.111 186.921 269.611 194.721 273.171C194.721 269.171 194.721 253.631 195.461 243.371C195.961 236.891 198.761 233.571 204.201 231.511C212.541 228.351 228.021 226.011 234.201 229.391C236.272 230.394 238.07 231.883 239.441 233.731C240.461 236.271 238.941 238.451 238.061 240.591C232.481 254.891 249.881 262.111 258.201 253.731C260.106 251.445 261.318 248.662 261.694 245.711C262.069 242.759 261.593 239.761 260.321 237.071C257.281 229.891 256.821 227.671 262.461 224.771C265.531 223.29 268.832 222.343 272.221 221.971C284.221 219.971 296.961 219.191 301.261 227.971C302.203 227.941 303.121 228.278 303.821 228.911C304.066 228.576 304.386 228.304 304.756 228.116C305.126 227.928 305.536 227.831 305.951 227.831C306.366 227.831 306.775 227.928 307.145 228.116C307.515 228.304 307.835 228.576 308.081 228.911C309.501 227.571 311.701 228.431 311.781 230.911C312.647 230.827 313.514 231.064 314.218 231.576C314.922 232.088 315.414 232.841 315.601 233.691C315.969 233.808 316.308 234.003 316.595 234.261C316.882 234.52 317.111 234.836 317.266 235.19C317.421 235.544 317.499 235.927 317.495 236.313C317.49 236.7 317.404 237.081 317.241 237.431C317.984 237.686 318.612 238.2 319.008 238.88C319.405 239.559 319.544 240.358 319.401 241.131C320.015 241.328 320.526 241.761 320.823 242.335C321.119 242.908 321.175 243.576 320.981 244.191C321.167 244.371 321.302 244.599 321.37 244.849C321.438 245.099 321.437 245.364 321.368 245.614C321.298 245.864 321.162 246.09 320.974 246.269C320.786 246.448 320.554 246.573 320.301 246.631C320.398 246.813 320.455 247.014 320.465 247.221C320.476 247.427 320.441 247.633 320.363 247.824C320.284 248.016 320.164 248.187 320.012 248.327C319.859 248.466 319.678 248.57 319.481 248.631C320.781 250.871 319.261 253.311 316.921 252.451C316.929 252.537 316.929 252.624 316.921 252.711C325.221 262.311 333.301 278.871 331.041 290.031C333.721 294.831 332.861 297.551 333.581 305.371C334.561 315.991 331.861 321.531 335.721 331.231C335.921 331.711 335.081 331.691 334.561 331.711C336.021 335.711 344.101 358.531 344.561 359.831C345.222 361.876 345.4 364.046 345.081 366.171C345.08 366.232 345.059 366.291 345.022 366.339C344.984 366.387 344.932 366.421 344.873 366.437C344.815 366.453 344.752 366.449 344.696 366.426C344.639 366.404 344.592 366.363 344.561 366.311L342.561 363.651C342.174 365.015 341.317 366.199 340.141 366.991C339.161 367.611 331.241 368.191 330.881 366.991C330.521 365.791 332.081 365.471 333.541 364.151C334.409 364.589 335.352 364.86 336.321 364.951C336.491 364.949 336.655 364.886 336.782 364.772C336.909 364.658 336.99 364.501 337.01 364.332C337.03 364.162 336.987 363.991 336.889 363.851C336.792 363.711 336.646 363.611 336.481 363.571C335.793 363.503 335.119 363.335 334.481 363.071C334.802 362.634 335.076 362.165 335.301 361.671C336.204 362.03 337.168 362.213 338.141 362.211C338.326 362.211 338.504 362.137 338.636 362.006C338.767 361.875 338.841 361.697 338.841 361.511C338.841 361.325 338.767 361.147 338.636 361.016C338.504 360.885 338.326 360.811 338.141 360.811C337.346 360.819 336.557 360.67 335.821 360.371C335.961 359.991 336.081 359.571 336.201 359.151C333.081 355.451 320.201 338.691 318.961 336.991C313.015 337.343 307.073 336.252 301.641 333.811C301.002 339.219 300.802 344.67 301.041 350.111C300.861 354.591 304.421 356.851 303.481 363.451C303.473 363.509 303.448 363.563 303.409 363.606C303.37 363.649 303.318 363.679 303.261 363.691C303.001 363.691 303.121 363.831 300.901 360.911C300.537 362.291 299.693 363.497 298.521 364.311C297.541 364.911 289.621 365.511 289.261 364.311C288.901 363.111 290.421 362.911 292.041 361.171C292.753 361.439 293.501 361.601 294.261 361.651C294.446 361.651 294.624 361.577 294.756 361.446C294.887 361.315 294.961 361.137 294.961 360.951C294.961 360.765 294.887 360.587 294.756 360.456C294.624 360.325 294.446 360.251 294.261 360.251C293.807 360.217 293.358 360.137 292.921 360.011C293.204 359.606 293.464 359.185 293.701 358.751C294.266 358.928 294.85 359.042 295.441 359.091C295.626 359.091 295.804 359.017 295.936 358.886C296.067 358.755 296.141 358.577 296.141 358.391C296.141 358.205 296.067 358.027 295.936 357.896C295.804 357.765 295.626 357.691 295.441 357.691C295.028 357.656 294.619 357.582 294.221 357.471L294.461 356.771C290.901 349.779 288.4 342.298 287.041 334.571C284.421 334.891 225.901 342.251 218.221 343.151C211.281 343.951 203.881 343.811 199.401 338.791C196.441 335.471 196.181 331.471 195.901 326.791C195.461 319.731 195.161 312.611 194.981 305.631C185.321 311.511 175.501 309.011 168.621 298.871C165.461 293.931 166.321 286.651 169.061 281.311C167.371 281.722 165.616 281.793 163.899 281.518C162.182 281.243 160.537 280.629 159.061 279.711L158.561 280.351C159.501 283.911 156.561 287.671 154.261 290.691C145.501 302.111 142.861 302.831 128.921 296.131C129.21 299.24 130.446 302.185 132.461 304.571C136.921 309.611 141.621 309.171 147.801 308.951C153.181 308.311 154.941 305.571 160.661 304.371C166.381 303.171 171.621 305.431 171.581 311.111C171.581 311.111 171.581 324.471 171.441 328.891C171.441 334.891 170.281 345.731 161.781 349.571C150.001 352.31 138.084 354.419 126.081 355.891C124.171 365.162 120.931 374.108 116.461 382.451C116.425 382.506 116.374 382.55 116.313 382.575C116.252 382.6 116.185 382.605 116.121 382.591L115.041 382.311C114.868 383.135 114.761 383.97 114.721 384.811C115.558 385.856 116.707 386.605 118.001 386.951C118.517 387.019 118.999 387.249 119.377 387.609C119.754 387.968 120.008 388.438 120.101 388.951C120.501 391.911 109.701 389.931 106.481 390.151C106.389 390.146 106.301 390.113 106.229 390.055C106.157 389.998 106.105 389.919 106.081 389.831C105.832 387.764 105.92 385.67 106.341 383.631C106.461 383.011 106.681 380.831 106.721 380.111C105.741 379.851 105.441 379.851 105.441 379.551C105.221 373.191 105.021 366.131 104.981 358.751C100.661 359.311 91.9806 360.311 86.6606 360.751C82.7038 366.732 77.623 371.887 71.7006 375.931C71.4606 376.071 71.4406 375.931 69.9206 374.911C69.4606 375.451 67.3606 377.751 66.9406 378.371C67.0669 379.757 67.6429 381.063 68.5806 382.091C70.3406 383.971 68.7005 386.811 66.2805 385.311C65.9205 385.091 64.9806 384.291 63.7606 383.311C56.7406 377.491 57.0605 378.351 57.0005 377.971C56.9405 377.591 60.6206 372.491 62.6006 369.831ZM258.781 54.9709C258.421 57.8709 260.641 58.7709 261.041 61.1109C261.441 64.9709 255.941 66.1909 253.041 63.9309L249.761 65.9309C253.981 68.9509 262.261 66.9309 262.741 62.2909C263.041 59.2309 260.241 57.8309 258.781 54.9709ZM297.641 69.8109C296.661 67.1709 294.841 68.7109 294.621 71.6109C295.381 71.6109 297.141 71.3709 297.941 71.3509C297.94 70.8232 297.838 70.3005 297.641 69.8109ZM217.641 80.9709C217.281 80.2709 216.441 79.7109 215.801 80.0709C214.721 80.9709 214.921 82.6909 214.941 84.2109L218.141 83.3709C218.134 82.5393 217.943 81.7194 217.581 80.9709H217.641ZM212.481 91.1109C210.414 93.3431 209.026 96.1182 208.481 99.1109C208.181 100.911 207.681 124.831 210.701 127.111C214.341 129.911 219.961 121.831 225.921 122.291C236.501 123.491 243.661 137.311 236.841 148.431C232.461 155.591 223.041 159.251 218.941 156.851C217.647 155.68 216.067 154.873 214.361 154.511C206.561 153.711 210.001 171.131 209.741 176.511C209.521 180.631 209.141 188.331 216.681 191.011C222.681 193.011 229.041 191.731 234.681 190.251C241.001 188.571 249.181 186.251 251.421 192.471C251.44 192.515 251.451 192.563 251.451 192.611C251.451 192.659 251.44 192.707 251.421 192.751C250.55 193.937 249.793 195.202 249.161 196.531C246.061 202.951 246.501 205.191 249.161 209.931C262.441 228.511 286.921 205.931 275.981 192.411C275.39 191.905 274.917 191.276 274.595 190.567C274.274 189.859 274.112 189.089 274.121 188.311C274.861 185.011 278.721 184.311 281.541 183.871L300.001 180.751C314.841 178.751 314.801 174.331 315.341 162.951C316.527 139.925 316.474 116.851 315.181 93.8309C314.881 87.8309 314.461 79.8309 308.001 75.8309C303.541 73.1709 279.361 77.8309 259.161 80.7709C245.961 82.6509 232.321 84.4909 222.701 86.5709C218.201 87.5709 215.041 88.4109 212.421 91.1109H212.481ZM219.421 81.5509C220.161 85.3909 212.541 80.9909 293.101 71.7909C293.139 70.8431 293.342 69.9091 293.701 69.0309C290.341 68.3509 268.021 63.4909 264.461 62.6109C263.361 68.8109 253.101 70.6109 248.741 66.6109C245.301 68.4109 222.861 79.9309 219.361 81.5509H219.421ZM250.501 50.1309C250.495 51.6551 250.402 53.1776 250.221 54.6909C249.541 57.3509 247.101 59.2109 247.501 61.9309C247.651 63.0288 248.109 64.0618 248.821 64.9109L252.321 63.0309C250.921 60.3109 251.101 59.4309 252.321 57.3509C253.431 55.6422 253.879 53.5868 253.581 51.5709C253.581 50.5109 253.701 48.7109 252.781 48.1509C251.861 47.5909 250.701 48.9309 250.501 50.1309ZM248.621 15.7709C250.921 17.5109 253.541 14.5709 251.981 12.2709C251.739 11.927 251.407 11.6571 251.021 11.4915C250.635 11.3259 250.21 11.2712 249.795 11.3335C249.38 11.3959 248.99 11.5727 248.669 11.8443C248.349 12.1159 248.11 12.4714 247.981 12.8709C247.882 13.3724 247.888 13.8886 247.999 14.3876C248.109 14.8865 248.32 15.3574 248.621 15.7709ZM194.261 15.7709C194.738 16.0783 195.308 16.211 195.872 16.1463C196.436 16.0816 196.961 15.8236 197.357 15.4161C197.752 15.0086 197.995 14.4766 198.043 13.9106C198.091 13.3446 197.942 12.7794 197.621 12.3109C197.384 11.9707 197.06 11.7013 196.682 11.5316C196.304 11.3619 195.887 11.2983 195.476 11.3476C195.065 11.397 194.675 11.5574 194.348 11.8117C194.021 12.066 193.77 12.4045 193.621 12.7909C193.525 13.3085 193.532 13.8399 193.642 14.3547C193.751 14.8695 193.962 15.3576 194.261 15.7909V15.7709ZM329.041 278.631C328.336 278.214 327.498 278.085 326.701 278.271C325.741 278.451 325.261 279.071 324.701 280.031C324.51 280.724 324.129 281.35 323.6 281.837C323.071 282.325 322.417 282.654 321.71 282.787C321.004 282.921 320.274 282.853 319.604 282.592C318.934 282.331 318.351 281.887 317.921 281.311C317.741 281.111 317.521 280.871 317.241 280.951C316.561 281.131 315.941 282.651 315.601 283.471C313.601 288.531 310.981 286.491 310.001 287.051C309.341 287.451 308.841 288.271 307.841 288.491C307.592 288.566 307.329 288.578 307.075 288.526C306.821 288.474 306.584 288.359 306.386 288.192C306.187 288.025 306.034 287.812 305.938 287.571C305.843 287.329 305.81 287.068 305.841 286.811C305.859 286.662 305.936 286.527 306.054 286.435C306.172 286.344 306.322 286.302 306.471 286.321C306.619 286.34 306.754 286.416 306.846 286.534C306.938 286.653 306.979 286.802 306.961 286.951C306.961 287.451 307.701 287.231 307.981 287.051C308.641 286.611 309.441 285.611 310.721 285.711C314.181 286.551 314.201 282.651 315.881 280.611C317.561 278.571 319.061 281.591 320.781 281.551C323.001 281.671 323.381 279.211 324.781 277.891C325.297 277.459 325.915 277.165 326.576 277.036C327.236 276.907 327.919 276.946 328.561 277.151C327.811 274.671 326.909 272.24 325.861 269.871C325.44 269.449 324.903 269.162 324.319 269.048C323.734 268.934 323.129 268.998 322.581 269.231C320.881 270.071 321.381 274.351 317.701 271.931L317.121 271.551C316.599 271.319 316.016 271.264 315.46 271.394C314.904 271.524 314.405 271.832 314.041 272.271C313.93 273.097 313.708 273.904 313.381 274.671C313.356 274.733 313.32 274.79 313.273 274.838C313.227 274.886 313.171 274.924 313.11 274.95C313.048 274.976 312.982 274.99 312.915 274.99C312.848 274.99 312.782 274.977 312.721 274.951C311.741 274.611 312.981 273.451 312.901 270.511C312.875 268.747 312.405 267.018 311.535 265.483C310.664 263.949 309.421 262.658 307.921 261.731C307.81 261.652 307.733 261.533 307.706 261.4C307.678 261.266 307.703 261.127 307.773 261.011C307.844 260.895 307.957 260.809 308.088 260.772C308.219 260.735 308.359 260.749 308.481 260.811C310.169 261.848 311.57 263.293 312.555 265.012C313.541 266.731 314.079 268.67 314.121 270.651C314.865 270.22 315.724 270.031 316.581 270.111C318.221 270.111 319.361 272.411 320.081 270.611C320.203 270.091 320.433 269.602 320.755 269.175C321.077 268.748 321.484 268.393 321.95 268.131C322.416 267.87 322.932 267.708 323.464 267.657C323.996 267.605 324.533 267.664 325.041 267.831C322.602 262.795 319.53 258.09 315.901 253.831C315.646 253.972 315.364 254.056 315.074 254.076C314.784 254.097 314.492 254.054 314.221 253.951C314.258 254.299 314.193 254.65 314.035 254.961C313.876 255.273 313.63 255.531 313.326 255.705C313.023 255.879 312.676 255.961 312.326 255.941C311.977 255.92 311.642 255.799 311.361 255.591C311.028 255.786 310.655 255.9 310.27 255.926C309.886 255.951 309.5 255.886 309.145 255.737C308.79 255.588 308.474 255.357 308.224 255.065C307.973 254.772 307.794 254.425 307.701 254.051C307.285 254.048 306.878 253.927 306.529 253.701C306.18 253.474 305.903 253.153 305.731 252.775C305.558 252.396 305.498 251.976 305.556 251.565C305.615 251.153 305.79 250.766 306.061 250.451C306.091 250.41 306.13 250.375 306.175 250.351C306.22 250.327 306.269 250.313 306.321 250.311C309.081 250.311 308.321 247.031 306.161 247.051C305.889 247.04 305.62 247.091 305.37 247.198C305.121 247.305 304.899 247.467 304.721 247.671C304.684 247.713 304.636 247.744 304.582 247.76C304.528 247.777 304.471 247.777 304.417 247.763C304.363 247.748 304.314 247.719 304.276 247.678C304.237 247.637 304.211 247.586 304.201 247.531C302.461 240.171 292.681 243.191 293.421 249.311C294.288 251.508 295.387 253.607 296.701 255.571C298.221 258.251 300.081 258.371 302.701 257.571C303.541 257.351 303.281 258.571 305.221 260.791C307.303 258.619 310.059 257.216 313.041 256.811C313.188 256.805 313.332 256.856 313.443 256.952C313.555 257.049 313.625 257.184 313.641 257.331C313.901 259.331 309.001 255.191 300.521 269.451C300.689 269.667 300.901 269.846 301.142 269.976C301.382 270.107 301.648 270.187 301.921 270.211C302.345 270.161 302.775 270.195 303.186 270.312C303.597 270.429 303.981 270.626 304.316 270.892C304.65 271.158 304.929 271.487 305.136 271.861C305.343 272.235 305.473 272.646 305.521 273.071C305.401 274.351 305.721 274.371 306.801 274.251C308.801 274.051 309.301 274.651 309.541 275.911C309.681 276.691 309.741 276.751 310.561 277.271C310.969 277.508 311.334 277.812 311.641 278.171C312.141 277.531 312.601 276.851 313.041 276.171C313.083 276.104 313.137 276.046 313.202 276C313.266 275.954 313.339 275.922 313.416 275.904C313.493 275.886 313.573 275.884 313.651 275.897C313.729 275.911 313.804 275.939 313.871 275.981C313.938 276.023 313.996 276.078 314.041 276.142C314.087 276.207 314.12 276.28 314.137 276.357C314.155 276.434 314.157 276.513 314.144 276.591C314.131 276.669 314.103 276.744 314.061 276.811C310.93 281.46 306.688 285.255 301.721 287.851C301.406 289.478 301.305 291.138 301.421 292.791C301.51 292.768 301.604 292.769 301.693 292.793C301.782 292.816 301.863 292.863 301.929 292.927C301.995 292.991 302.044 293.071 302.07 293.159C302.097 293.247 302.1 293.341 302.081 293.431C301.981 293.751 302.321 293.991 302.601 293.971C303.961 293.971 305.201 291.351 307.921 294.311C309.341 295.951 310.361 293.111 312.201 292.951C313.461 292.831 313.941 294.371 314.801 294.211C316.021 294.011 316.601 292.771 317.561 291.951C320.261 289.571 321.761 293.171 324.201 290.611C325.261 289.511 325.441 288.011 326.981 287.331C327.821 286.971 329.661 286.791 330.181 285.991C330.086 283.502 329.704 281.032 329.041 278.631ZM289.421 283.771C289.535 283.527 289.58 283.257 289.552 282.989C289.524 282.721 289.423 282.466 289.261 282.251L287.421 283.211C287.687 283.342 287.921 283.53 288.106 283.763C288.29 283.995 288.421 284.266 288.488 284.555C288.555 284.844 288.556 285.144 288.493 285.434C288.43 285.724 288.302 285.996 288.121 286.231C287.021 287.831 290.121 287.611 290.601 289.631L292.441 289.371C292.801 287.651 292.061 286.591 290.081 286.031C289.041 285.671 289.041 284.771 289.441 283.771H289.421ZM286.781 285.931C287.581 284.891 287.281 284.431 286.061 283.931C284.541 284.711 282.581 285.691 280.581 286.571C280.916 287.707 281.351 288.811 281.881 289.871C284.33 290.071 286.791 290.071 289.241 289.871C288.916 289.542 288.537 289.271 288.121 289.071C287.041 288.311 286.161 287.151 286.801 285.931H286.781ZM290.341 284.671C290.341 284.991 290.881 284.991 291.361 285.171C292.15 285.475 292.816 286.034 293.254 286.758C293.692 287.481 293.877 288.33 293.781 289.171C298.717 288.111 303.335 285.905 307.261 282.731C307.343 282.625 307.388 282.495 307.388 282.361C307.388 282.227 307.343 282.097 307.261 281.991C306.641 281.731 305.801 281.771 305.421 280.931C305.041 280.091 305.421 279.491 305.121 279.071C304.821 278.651 303.921 279.331 303.541 279.391C301.661 279.731 300.721 278.171 301.181 276.331C301.641 274.491 299.901 274.451 298.261 274.551C296.881 278.771 294.141 279.871 290.401 281.751C290.653 282.198 290.782 282.703 290.775 283.216C290.768 283.729 290.625 284.231 290.361 284.671H290.341ZM301.741 274.191C303.281 275.631 301.741 277.411 302.621 277.931C303.501 278.451 304.721 276.871 305.901 277.811C306.161 278.09 306.357 278.422 306.474 278.785C306.592 279.148 306.628 279.532 306.581 279.911C306.581 280.691 308.001 280.131 308.581 281.591C311.041 279.351 310.401 279.591 310.801 279.231C310.801 278.911 309.761 278.291 309.501 278.131C309.169 277.939 308.888 277.67 308.682 277.346C308.477 277.022 308.353 276.653 308.321 276.271C308.201 274.651 305.981 276.451 304.721 274.931C304.121 274.231 304.481 273.331 304.241 272.731C304.114 272.365 303.885 272.044 303.579 271.806C303.274 271.568 302.906 271.424 302.521 271.391C302.059 271.434 301.594 271.386 301.151 271.248C300.708 271.111 300.297 270.888 299.941 270.591C299.465 271.447 299.051 272.336 298.701 273.251C299.802 273.177 300.891 273.511 301.761 274.191H301.741ZM338.061 359.211C338.444 359.341 338.851 359.387 339.254 359.344C339.657 359.302 340.045 359.172 340.393 358.965C340.741 358.758 341.04 358.478 341.269 358.144C341.498 357.81 341.652 357.43 341.721 357.031C341.401 355.151 333.221 332.911 332.561 331.031C331.773 330.4 331.24 329.505 331.061 328.511C329.841 323.711 328.441 315.431 327.441 311.391C322.761 319.531 324.621 329.951 327.081 335.091C327.1 335.132 327.11 335.176 327.11 335.221C327.11 335.266 327.1 335.31 327.081 335.351C325.051 336.065 322.942 336.529 320.801 336.731C329.181 348.711 337.581 358.611 338.061 359.211ZM329.921 289.771C330.061 289.005 330.148 288.229 330.181 287.451C329.685 287.749 329.154 287.985 328.601 288.151C327.061 288.671 326.921 288.831 326.361 289.971C326.033 290.756 325.517 291.448 324.857 291.986C324.198 292.523 323.416 292.889 322.581 293.051C321.001 293.271 319.701 291.831 318.581 292.791C317.461 293.751 316.921 294.911 315.561 295.451C315.115 295.677 314.602 295.729 314.121 295.595C313.64 295.462 313.226 295.154 312.961 294.731C312.501 294.191 312.281 293.951 311.381 294.731C308.121 297.691 306.961 294.731 306.001 294.151C305.041 293.571 303.521 295.731 301.881 294.911C302.063 295.472 302.297 296.014 302.581 296.531C308.201 298.631 322.381 300.931 329.921 289.771ZM295.921 356.111C296.259 356.358 296.649 356.526 297.061 356.601C297.473 356.676 297.897 356.658 298.301 356.546C298.705 356.435 299.078 356.233 299.393 355.957C299.708 355.681 299.957 355.337 300.121 354.951C299.601 351.551 299.241 346.271 300.441 333.211C295.755 330.782 291.606 327.436 288.241 323.371C286.541 335.331 291.601 346.071 295.841 356.111H295.921ZM172.261 298.111C173.773 301.887 176.702 304.923 180.421 306.571C184.388 307.838 188.693 307.508 192.421 305.651C195.961 303.971 197.701 301.751 200.861 302.791C200.919 302.811 200.969 302.849 201.005 302.899C201.04 302.95 201.06 303.009 201.061 303.071C201.061 328.271 199.421 331.931 203.061 337.531C204.021 339.051 207.361 342.511 217.401 341.711C222.701 341.291 275.401 334.691 287.061 333.211C286.588 329.474 286.655 325.689 287.261 321.971C286.421 320.851 286.121 320.571 286.321 320.311C293.261 311.071 293.301 311.731 296.041 307.591C297.126 305.746 298.474 304.069 300.041 302.611C300.779 302.17 301.365 301.515 301.723 300.732C302.08 299.95 302.191 299.078 302.041 298.231C299.781 295.751 299.861 292.231 300.361 288.591C292.361 291.891 283.201 291.731 281.621 291.131C279.981 291.831 273.021 292.751 273.621 290.351C271.961 290.211 271.621 288.871 272.201 288.071C272.043 287.955 271.915 287.805 271.825 287.631C271.734 287.458 271.685 287.266 271.681 287.071C271.681 285.631 273.901 286.071 275.161 286.331C275.841 286.471 275.741 286.491 275.661 286.231C275.655 286.212 275.649 286.194 275.643 286.175C275.406 285.428 275.139 284.582 275.861 284.231C277.041 283.671 277.421 285.711 279.601 286.231C279.601 285.651 278.941 285.911 290.001 280.231C294.681 277.831 295.441 277.851 297.501 272.991C299.355 268.882 301.793 265.062 304.741 261.651C303.953 260.817 303.281 259.882 302.741 258.871C301.605 259.34 300.342 259.396 299.169 259.031C297.997 258.665 296.989 257.901 296.321 256.871C294.939 254.935 293.81 252.832 292.961 250.611C292.421 250.224 291.906 249.803 291.421 249.351C290.341 249.951 288.241 248.711 288.601 247.611C287.541 247.371 286.601 246.291 287.141 245.471C285.981 245.111 285.821 243.751 286.661 242.731C286.021 242.011 286.921 240.611 287.381 239.811C286.921 239.111 287.741 237.811 288.421 237.431C288.339 237.129 288.329 236.812 288.393 236.505C288.456 236.199 288.59 235.912 288.785 235.666C288.979 235.421 289.229 235.225 289.513 235.094C289.797 234.963 290.108 234.9 290.421 234.911C290.421 233.571 291.541 231.951 292.881 232.331C293.041 230.691 293.801 229.851 295.461 230.171C295.658 229.865 295.918 229.603 296.222 229.403C296.527 229.202 296.87 229.068 297.229 229.007C297.589 228.947 297.957 228.963 298.31 229.053C298.663 229.143 298.994 229.306 299.281 229.531C299.424 228.975 299.774 228.496 300.261 228.191C299.709 227.031 298.787 226.088 297.641 225.511C293.421 223.511 289.281 224.051 285.321 224.491C285.181 224.491 270.761 226.491 267.481 227.411C266.675 227.541 265.913 227.864 265.258 228.351C264.604 228.839 264.076 229.477 263.721 230.211C263.361 231.231 263.921 232.011 265.021 234.871C267.161 240.431 268.521 247.311 265.961 252.651C257.161 267.891 230.281 258.011 237.001 239.711C238.741 237.051 239.001 235.051 237.881 233.711C233.261 228.591 208.361 234.971 205.881 236.271C204.725 236.87 203.661 237.631 202.721 238.531C201.956 239.465 201.379 240.538 201.021 241.691C200.081 244.671 199.561 259.971 199.721 278.871C199.721 278.928 199.707 278.983 199.678 279.033C199.65 279.082 199.61 279.123 199.561 279.151C199.081 279.411 197.421 277.151 191.561 275.651C188.302 274.647 184.798 274.793 181.635 276.064C178.471 277.334 175.84 279.653 174.181 282.631C170.921 288.311 170.361 293.531 172.181 298.091L172.261 298.111ZM276.741 287.391C276.461 287.671 276.061 287.511 275.481 287.391C274.901 287.271 272.461 286.631 272.461 287.131C272.461 287.631 275.141 288.091 275.981 288.031C276.821 287.971 276.621 288.811 275.981 288.891C275.341 288.971 272.901 288.511 272.701 288.891C272.841 289.451 273.841 289.591 275.761 289.451C275.859 289.422 275.964 289.433 276.054 289.482C276.144 289.53 276.211 289.613 276.241 289.711C276.27 289.809 276.259 289.915 276.21 290.005C276.161 290.095 276.079 290.162 275.981 290.191C275.681 290.311 274.201 290.311 274.221 290.711C274.731 290.912 275.272 291.027 275.821 291.051C277.431 291.075 279.032 290.797 280.541 290.231C280.11 289.301 279.756 288.338 279.481 287.351C278.859 287.281 278.258 287.086 277.715 286.776C277.172 286.467 276.697 286.05 276.321 285.551C276.461 286.311 277.041 286.971 276.661 287.371L276.741 287.391ZM68.1406 255.271C67.7606 255.031 67.6406 255.811 67.8806 256.571C67.903 256.643 67.8992 256.721 67.8699 256.79C67.8406 256.86 67.7877 256.917 67.7206 256.951C67.4006 257.091 67.3006 256.731 66.8806 256.051C66.4606 255.371 66.2406 254.671 65.8206 254.411C65.4006 254.151 65.2205 254.151 65.2805 254.411C65.7301 255.453 66.3298 256.423 67.0605 257.291C67.1064 257.319 67.1459 257.356 67.1762 257.401C67.2066 257.445 67.2271 257.495 67.2366 257.548C67.246 257.601 67.2441 257.656 67.231 257.708C67.2179 257.76 67.1939 257.809 67.1606 257.851C66.6606 258.491 65.7006 256.871 65.1606 255.851C64.6206 254.831 64.1606 255.851 64.6806 256.571C65.1402 257.198 65.6343 257.799 66.1606 258.371C66.2039 258.401 66.2409 258.44 66.2693 258.484C66.2978 258.529 66.3173 258.578 66.3265 258.63C66.3453 258.735 66.3216 258.843 66.2606 258.931C66.1996 259.018 66.1063 259.078 66.0013 259.097C65.8963 259.116 65.7881 259.092 65.7006 259.031C65.2637 258.648 64.8559 258.234 64.4806 257.791C63.2206 258.251 65.9606 260.871 66.9806 261.791C67.1568 261.127 67.4776 260.51 67.9202 259.984C68.3628 259.459 68.9161 259.038 69.5406 258.751C69.1855 257.53 68.6888 256.356 68.0605 255.251L68.1406 255.271ZM98.4405 137.071L100.441 137.911C100.116 134.408 101.037 130.903 103.041 128.011C102.605 127.707 102.209 127.351 101.861 126.951C100.881 128.211 100.141 128.811 98.4005 127.851C97.6205 127.511 93.6205 125.191 92.4005 124.271H89.0406C89.0659 127.121 89.9874 129.891 91.6745 132.188C93.3615 134.485 95.7287 136.194 98.4405 137.071ZM105.481 125.471C107.221 125.911 107.861 125.671 108.021 125.471C107.741 125.211 106.281 125.231 106.021 125.051C105.938 124.993 105.879 124.906 105.855 124.808C105.83 124.71 105.843 124.606 105.889 124.516C105.935 124.426 106.012 124.355 106.106 124.318C106.2 124.28 106.305 124.278 106.401 124.311C106.892 124.439 107.414 124.374 107.861 124.131C107.934 124.08 107.992 124.01 108.031 123.93C108.069 123.849 108.086 123.76 108.081 123.671C108.081 122.791 106.181 123.811 104.501 122.811C103.933 123.987 103.264 125.112 102.501 126.171C104.141 127.971 106.821 128.051 107.281 127.451C107.421 127.271 107.281 127.111 107.141 127.011C106.521 126.771 105.441 127.011 104.901 126.171C104.828 126.089 104.787 125.983 104.785 125.874C104.783 125.764 104.821 125.657 104.891 125.573C104.961 125.488 105.059 125.431 105.167 125.413C105.275 125.394 105.386 125.415 105.481 125.471ZM106.821 121.471C104.641 121.691 105.001 121.471 104.821 121.931C105.198 122.094 105.586 122.234 105.981 122.351C106.227 121.997 106.508 121.668 106.821 121.371V121.471ZM87.5605 103.471C85.5605 102.351 84.0205 101.791 80.5605 99.7109C75.9005 109.451 88.5606 121.191 98.9606 126.391C99.1206 126.391 99.8005 126.911 99.9805 126.871C101.55 125.135 102.741 123.091 103.481 120.871C101.68 119.513 100.012 117.986 98.5005 116.311C96.0251 113.412 94.0022 110.155 92.5005 106.651C92.5224 106.584 92.5655 106.527 92.6234 106.487C92.6812 106.447 92.7505 106.427 92.8205 106.431C97.4005 106.651 99.0806 102.591 99.0206 98.0909C99.0206 96.9709 97.8005 96.4909 97.7205 97.6109C97.5205 100.671 97.4205 103.611 94.4405 104.791C93.2678 105.097 92.0416 105.137 90.8513 104.909C89.661 104.681 88.5367 104.189 87.5605 103.471ZM92.3405 58.4309C89.1405 60.8909 88.2006 64.2909 90.0806 68.6509C90.5006 69.6109 90.2806 69.4109 90.7406 69.3309C90.9089 67.4833 91.5419 65.7082 92.5806 64.1709C91.9489 62.3207 91.8655 60.3274 92.3405 58.4309ZM92.0605 69.5909C92.1976 69.66 92.3199 69.7551 92.4205 69.8709C93.5048 68.926 94.791 68.2418 96.1806 67.8709C96.1806 67.6709 96.0606 67.0709 96.1806 66.9109C97.9206 64.7309 101.721 64.6709 102.061 65.2309C102.342 65.6872 102.564 66.1779 102.721 66.6909C102.95 66.5936 103.193 66.5329 103.441 66.5109C103.441 66.1909 103.301 64.9509 103.541 64.7709C103.877 64.5145 104.247 64.3058 104.641 64.1509C103.68 63.1433 102.422 62.4696 101.051 62.2285C99.6797 61.9874 98.2673 62.1915 97.0206 62.8109C95.7284 63.4839 94.6088 64.4457 93.7486 65.6215C92.8883 66.7974 92.3107 68.1557 92.0605 69.5909ZM94.4205 57.1709C93.8346 57.9336 93.4353 58.8228 93.2547 59.7675C93.0741 60.7121 93.1172 61.6859 93.3805 62.6109C94.5874 60.2547 96.3519 58.2293 98.5206 56.7109C97.1414 56.3933 95.6951 56.5556 94.4205 57.1709ZM107.821 69.3509C107.188 69.6124 106.503 69.722 105.821 69.6709C105.907 69.8136 106.023 69.9363 106.161 70.0309C106.332 70.135 106.457 70.3012 106.509 70.4948C106.561 70.6885 106.537 70.8948 106.441 71.0709C105.978 71.7249 105.386 72.2764 104.701 72.6909C104.582 72.7273 104.455 72.7271 104.336 72.6905C104.217 72.6538 104.113 72.5824 104.035 72.4854C103.957 72.3884 103.911 72.2703 103.901 72.1465C103.891 72.0227 103.919 71.8988 103.981 71.7909L104.681 70.8109C104.105 69.8687 103.781 68.7943 103.741 67.6909C103.619 67.6362 103.484 67.6184 103.353 67.6397C103.221 67.6611 103.099 67.7206 103.001 67.8109C103.02 67.9837 103.02 68.1581 103.001 68.3309C102.803 69.0167 102.4 69.6256 101.847 70.0762C101.294 70.5268 100.616 70.7974 99.9042 70.8518C99.1926 70.9062 98.4814 70.7418 97.8659 70.3806C97.2504 70.0194 96.7601 69.4787 96.4606 68.8309C95.103 69.2073 93.8505 69.8917 92.8006 70.8309C92.7653 70.9546 92.6947 71.0653 92.5975 71.1494C92.5002 71.2335 92.3805 71.2874 92.253 71.3044C92.1255 71.3214 91.9959 71.3008 91.88 71.2451C91.764 71.1894 91.6669 71.1011 91.6005 70.9909C91.2405 70.4509 90.4005 70.8109 90.2805 71.3709C90.0805 72.4709 91.2206 72.6909 92.0806 73.3709C93.2438 75.1177 94.2351 76.973 95.0405 78.9109C95.105 79.0254 95.13 79.1577 95.112 79.2878C95.0939 79.4179 95.0337 79.5384 94.9405 79.6309C97.8678 83.3365 101.905 86.007 106.461 87.2509C106.339 86.7056 106.342 86.1399 106.47 85.596C106.598 85.0522 106.848 84.5445 107.201 84.1109C107.441 83.8909 106.661 83.0909 106.121 82.2709C105.821 81.8169 105.554 81.3424 105.321 80.8509C104.961 81.1509 104.621 81.4909 104.281 81.1109C104.229 81.0641 104.188 81.0069 104.16 80.9432C104.131 80.8795 104.117 80.8106 104.117 80.7409C104.117 80.6713 104.131 80.6024 104.16 80.5386C104.188 80.4749 104.229 80.4178 104.281 80.3709C108.221 77.0509 109.341 73.7109 107.821 69.3509ZM111.821 84.6509C110.34 82.9254 108.583 81.4587 106.621 80.3109C106.981 81.0709 108.621 83.4909 108.621 83.8509C108.643 84.2005 108.529 84.5451 108.301 84.8109C107.797 85.608 107.592 86.5572 107.721 87.4909L108.321 87.6309C108.448 87.6522 108.562 87.7231 108.637 87.8281C108.712 87.9331 108.742 88.0636 108.721 88.1909C108.699 88.3182 108.628 88.4319 108.523 88.5069C108.418 88.5819 108.288 88.6122 108.161 88.5909C105.343 88.2066 102.634 87.2509 100.199 85.7824C97.7642 84.3139 95.6549 82.3636 94.0005 80.0509C92.6405 80.4709 92.3805 81.6109 92.7205 82.9909C94.7518 87.1444 97.7156 90.7721 101.381 93.5909C104.221 95.7909 106.101 97.2509 107.381 96.6909C108.685 94.307 109.718 91.7847 110.461 89.1709C111.581 86.0509 111.941 85.5909 111.721 84.6509H111.821ZM110.181 119.211C110.861 119.871 111.561 118.791 118.481 111.331C118.595 111.217 118.659 111.062 118.659 110.901C118.659 110.74 118.595 110.585 118.481 110.471C118.367 110.357 118.212 110.293 118.051 110.293C117.889 110.293 117.735 110.357 117.621 110.471C109.981 118.051 109.501 118.671 110.081 119.211H110.181ZM148.381 82.8709C148.381 82.8709 148.561 82.5909 148.381 82.2109C148.177 81.7827 147.858 81.4203 147.458 81.1656C147.058 80.9109 146.595 80.7741 146.121 80.7709C146.174 81.0153 146.214 81.2623 146.241 81.5109C146.884 81.8854 147.499 82.3066 148.081 82.7709C148.081 82.7709 148.241 82.8909 148.281 82.8709H148.381ZM147.041 84.3109C147.421 84.4909 147.961 83.8909 147.861 83.4709C147.441 83.1509 146.721 82.7909 146.201 82.4309C146.098 82.7021 145.971 82.9632 145.821 83.2109C146.072 83.7201 146.508 84.1137 147.041 84.3109ZM146.601 85.0309C146.601 84.6309 146.181 84.8509 145.141 83.5109C144.973 83.5591 144.798 83.5715 144.626 83.5473C144.453 83.5232 144.288 83.4631 144.141 83.3709C143.381 82.9109 142.541 80.8909 143.461 80.7709C143.52 80.7595 143.581 80.7605 143.64 80.7737C143.699 80.7869 143.754 80.8121 143.803 80.8478C143.852 80.8834 143.893 80.9287 143.923 80.9809C143.954 81.0331 143.973 81.0909 143.981 81.1509C143.981 81.7309 144.601 82.6509 145.081 82.1509C145.561 81.6509 144.381 79.0709 142.321 80.1509C140.901 80.7909 141.841 82.9109 140.781 84.1509C141.281 84.5909 141.761 85.0509 142.241 85.5109L143.441 84.3309C143.061 83.5709 143.701 83.4309 143.941 83.6509C144.921 84.4309 146.401 86.1509 146.701 85.0309H146.601ZM144.381 85.6709L144.061 85.2909C143.721 85.6109 143.361 85.9509 143.001 86.3309L143.601 86.9509C143.966 86.5785 144.264 86.1454 144.481 85.6709H144.381ZM127.361 105.371C135.081 104.331 139.361 95.9709 143.201 89.2709C143.641 88.4909 143.361 88.6509 141.961 87.2709C138.281 90.9509 125.701 103.871 124.441 105.171C125.431 105.39 126.45 105.458 127.461 105.371H127.361ZM141.201 86.6109C138.041 83.4909 139.201 83.4309 137.641 84.9309C136.081 86.4309 129.041 92.6909 127.301 94.2909C127.196 94.3923 127.056 94.4491 126.911 94.4491C126.765 94.4491 126.625 94.3923 126.521 94.2909C126.019 93.8208 125.47 93.4051 124.881 93.0509C123.607 96.5435 122.124 99.9563 120.441 103.271C121.213 103.98 122.116 104.53 123.101 104.891C128.441 99.4909 137.041 90.8109 141.301 86.6109H141.201ZM122.141 105.871C121.311 105.51 120.542 105.025 119.861 104.431C119.421 105.211 119.361 105.331 119.161 105.351C119.111 105.353 119.062 105.342 119.016 105.322C118.971 105.301 118.932 105.27 118.901 105.231C116.526 101.956 115.138 98.0695 114.901 94.0309C114.781 92.9709 113.601 93.2509 113.681 94.3109C113.996 98.8697 115.667 103.23 118.481 106.831C118.481 107.011 118.861 107.811 119.281 108.831C119.961 108.311 121.041 107.171 122.241 105.871H122.141ZM128.241 120.011C125.782 118.504 123.223 117.167 120.581 116.011C117.015 118.268 113.122 119.961 109.041 121.031C108.454 121.337 107.92 121.735 107.461 122.211C107.758 122.199 108.053 122.269 108.313 122.412C108.574 122.555 108.791 122.766 108.941 123.023C109.091 123.279 109.168 123.572 109.165 123.87C109.161 124.167 109.077 124.458 108.921 124.711C109.069 124.839 109.18 125.005 109.241 125.191C109.303 125.377 109.312 125.576 109.269 125.767C109.226 125.958 109.132 126.134 108.996 126.276C108.861 126.417 108.69 126.519 108.501 126.571C109.361 128.111 107.441 129.831 104.501 128.711C104.511 128.757 104.511 128.805 104.501 128.851C102.181 131.491 101.981 135.051 101.961 138.431C112.801 142.591 113.501 142.291 113.201 143.151C113.163 143.29 113.073 143.408 112.95 143.483C112.828 143.557 112.681 143.582 112.541 143.551C112.041 143.431 111.521 143.311 111.001 143.151C112.061 150.251 110.761 157.311 111.521 164.351C111.64 165.819 111.867 167.276 112.201 168.711C113.493 169.167 114.836 169.463 116.201 169.591C117.281 169.751 119.061 170.291 119.741 169.391C120.041 168.873 120.263 168.314 120.401 167.731C126.821 148.571 129.701 142.411 127.241 136.111C125.241 131.151 119.801 128.891 116.021 125.271C115.541 124.851 116.201 124.151 116.681 124.551C122.281 129.291 129.761 130.931 129.781 140.691C133.981 140.931 136.141 144.951 138.201 148.511C138.621 149.211 146.201 161.251 146.881 161.031C149.352 159.972 151.728 158.7 153.981 157.231C154.421 156.811 153.861 155.811 153.661 155.231C143.341 125.771 140.641 127.031 128.341 120.011H128.241ZM119.901 176.631L120.841 175.991L120.461 175.631C119.942 175.988 119.33 176.182 118.701 176.191C118.6 176.191 118.503 176.151 118.432 176.08C118.361 176.008 118.321 175.912 118.321 175.811C118.321 175.71 118.361 175.613 118.432 175.542C118.503 175.471 118.6 175.431 118.701 175.431C119.023 175.291 119.326 175.11 119.601 174.891L119.201 174.471C118.724 174.755 118.213 174.977 117.681 175.131C117.361 175.131 117.241 175.131 117.201 174.951C117.161 174.771 117.381 174.631 118.461 173.671C118.353 173.527 118.259 173.373 118.181 173.211C117.272 173.621 116.287 173.833 115.291 173.833C114.294 173.833 113.309 173.621 112.401 173.211C112.281 174.111 111.921 176.571 111.881 177.011C115.331 177.451 118.803 177.711 122.281 177.791C122.281 177.671 122.281 177.371 121.521 176.731C121.081 176.971 120.021 177.491 119.741 177.191C119.699 177.141 119.672 177.081 119.663 177.017C119.654 176.952 119.664 176.887 119.691 176.828C119.719 176.769 119.762 176.719 119.817 176.684C119.872 176.649 119.936 176.631 120.001 176.631H119.901ZM117.781 171.391L112.941 170.631C112.941 170.991 112.841 171.631 112.821 171.971C113.574 172.362 114.411 172.566 115.261 172.566C116.11 172.566 116.947 172.362 117.701 171.971C117.821 171.791 117.841 171.571 117.881 171.391H117.781ZM150.961 167.391C151.181 167.391 159.741 164.091 160.661 163.391C160.541 163.151 160.101 162.991 159.701 162.851C159.421 163.251 158.681 164.171 158.301 164.051C158.229 164.02 158.169 163.966 158.133 163.896C158.097 163.827 158.085 163.748 158.101 163.671C158.101 163.671 158.701 162.571 158.741 162.511L158.061 162.291C157.751 162.832 157.302 163.281 156.761 163.591C156.669 163.614 156.573 163.604 156.488 163.562C156.404 163.521 156.337 163.451 156.298 163.365C156.26 163.279 156.253 163.183 156.279 163.092C156.305 163.002 156.362 162.923 156.441 162.871C156.675 162.599 156.87 162.296 157.021 161.971L156.421 161.751C156.1 162.287 155.679 162.756 155.181 163.131C154.781 163.271 154.581 162.691 154.841 162.571C155.055 162.171 155.242 161.757 155.401 161.331C155.246 161.267 155.098 161.186 154.961 161.091C154.321 161.866 153.53 162.501 152.636 162.959C151.741 163.416 150.763 163.686 149.761 163.751C149.881 164.231 150.461 166.051 150.921 167.171C151.041 167.251 151.041 167.331 151.041 167.331L150.961 167.391ZM154.041 160.311L153.621 159.151L149.301 161.551C149.401 161.811 149.541 162.211 149.641 162.431C150.561 162.491 153.621 161.891 154.041 160.311ZM169.401 224.811C169.401 216.811 166.901 208.331 169.661 200.331C171.101 196.131 173.201 195.871 176.361 196.891C179.604 197.998 183.118 198.033 186.384 196.993C189.65 195.952 192.495 193.89 194.501 191.111C203.041 179.311 192.301 159.471 177.401 167.851C175.723 168.935 174.32 170.393 173.301 172.111C172.874 172.338 172.397 172.453 171.914 172.445C171.431 172.438 170.958 172.309 170.539 172.069C170.12 171.829 169.768 171.487 169.516 171.075C169.265 170.663 169.122 170.193 169.101 169.711C169.301 169.711 168.941 171.171 169.621 152.851C169.821 146.311 170.681 137.731 165.421 133.591C159.421 129.791 151.421 131.271 145.821 132.511C149.585 140.056 152.71 147.903 155.161 155.971C155.378 156.392 155.439 156.876 155.333 157.337C155.226 157.799 154.96 158.208 154.581 158.491C154.721 158.811 154.941 159.371 155.041 159.611C157.301 161.191 162.741 161.371 162.181 163.791C161.941 164.851 152.561 167.791 151.941 168.171C150.381 168.951 150.541 168.891 148.681 164.051C148.599 163.883 148.557 163.698 148.557 163.511C148.557 163.324 148.599 163.139 148.681 162.971C148.545 162.671 148.425 162.363 148.321 162.051C147.481 162.411 146.321 162.831 145.421 161.811C135.421 149.231 135.761 142.891 129.661 142.031C129.336 145.158 128.631 148.235 127.561 151.191C127.549 151.227 127.531 151.28 127.508 151.349C126.837 153.361 121.647 168.94 121.241 169.791C121.045 170.218 120.745 170.59 120.367 170.869C119.989 171.149 119.547 171.329 119.081 171.391C119.081 172.071 118.481 170.971 122.921 176.051C123.441 176.651 124.221 177.551 123.761 178.491C123.595 178.777 123.35 179.009 123.056 179.158C122.761 179.307 122.429 179.367 122.101 179.331C121.901 179.331 111.721 178.271 111.321 177.991C111.176 177.865 111.071 177.699 111.018 177.515C110.964 177.331 110.965 177.135 111.021 176.951C111.481 174.051 111.021 172.591 111.841 172.031C111.841 171.631 111.941 170.851 112.001 170.431C110.986 170.133 110.822 169.083 110.722 168.442C110.722 168.438 110.721 168.435 110.721 168.431C109.041 158.871 110.621 151.291 109.641 142.791C107.081 141.951 104.501 140.991 101.841 139.931C101.841 145.271 102.621 173.811 102.661 177.931C104.481 196.051 88.5205 203.811 94.2205 218.331C94.2617 218.472 94.2493 218.624 94.1857 218.757C94.1221 218.89 94.0118 218.995 93.8759 219.052C93.7399 219.109 93.5877 219.114 93.4484 219.065C93.3091 219.017 93.1924 218.92 93.1205 218.791C89.6005 211.211 92.4805 204.791 96.3205 197.491C103.001 184.691 101.241 187.491 100.561 139.491L99.8605 139.191C99.7415 139.201 99.6201 139.211 99.4964 139.221C91.6603 139.874 74.6503 141.292 70.2006 147.711C68.6687 149.987 67.8984 152.69 68.0005 155.431C67.8005 181.431 67.9006 194.571 69.7006 240.631C70.8006 252.171 94.0406 247.291 103.961 246.931C106.721 246.931 109.621 246.631 108.381 244.171C107.681 242.951 106.161 242.471 104.961 241.731C100.721 239.091 98.4005 227.351 107.381 219.531C121.381 207.411 143.381 220.431 132.761 239.991C130.301 243.991 133.941 244.271 138.581 243.711C138.581 243.711 154.461 242.331 157.921 241.971C168.321 240.811 169.401 229.591 169.401 224.811ZM169.921 279.771L170.461 278.951C170.844 271.1 170.55 263.231 169.581 255.431C169.466 252.596 168.913 249.796 167.941 247.131C164.541 240.111 144.201 245.011 137.701 245.271C135.341 245.551 132.681 245.691 131.141 243.891C129.601 242.091 130.741 240.391 131.541 238.911C132.761 236.872 133.548 234.602 133.851 232.245C134.154 229.887 133.966 227.493 133.301 225.211C125.841 209.211 100.641 216.691 102.881 234.371C103.701 241.371 106.881 240.031 109.141 242.531C109.609 242.989 109.941 243.568 110.1 244.204C110.259 244.839 110.238 245.506 110.041 246.131C109.241 248.131 106.881 248.131 105.181 248.331C100.241 248.631 89.2806 249.511 76.9806 250.731C72.3806 251.171 71.7206 251.871 70.6606 253.031C70.1163 253.631 69.6586 254.304 69.3006 255.031C69.9452 256.116 70.4302 257.288 70.7406 258.511C71.849 258.593 72.8917 259.068 73.6806 259.851C77.8598 262.71 81.6746 266.068 85.0406 269.851C91.308 268.137 97.8463 267.641 104.301 268.391C103.287 265.63 102.615 262.755 102.301 259.831C101.798 259.297 101.407 258.668 101.149 257.981C100.892 257.295 100.773 256.564 100.801 255.831C100.961 252.591 104.001 251.431 107.241 249.831C110.115 248.279 113.191 247.134 116.381 246.431C119.21 245.803 122.13 245.688 125.001 246.091C127.001 246.251 127.381 248.591 127.601 250.091C128.553 250.662 129.383 251.416 130.041 252.311C130.078 252.36 130.098 252.419 130.098 252.481C130.098 252.542 130.078 252.602 130.041 252.651C129.801 253.011 129.321 252.411 127.281 252.891C128.839 253.7 130.049 255.052 130.681 256.691C130.703 256.75 130.706 256.814 130.69 256.874C130.673 256.935 130.638 256.989 130.59 257.029C130.541 257.069 130.481 257.092 130.419 257.096C130.356 257.1 130.294 257.084 130.241 257.051C129.209 256.359 128.055 255.87 126.841 255.611C126.778 257.368 127.193 259.11 128.041 260.651C128.561 261.571 129.901 262.651 126.681 264.531C127.621 267.131 127.661 270.911 125.101 272.171C128.63 274.03 131.822 276.471 134.541 279.391C137.026 277.015 140.147 275.409 143.525 274.766C146.904 274.124 150.396 274.473 153.581 275.771C153.801 273.651 152.181 272.871 152.721 271.431C152.778 271.252 152.88 271.091 153.016 270.961C153.152 270.832 153.319 270.739 153.501 270.691C154.261 270.571 155.021 271.591 155.501 272.071C155.941 270.731 156.101 267.871 157.681 268.431C157.911 268.525 158.11 268.681 158.255 268.883C158.4 269.085 158.485 269.323 158.501 269.571C158.862 269.55 159.218 269.664 159.501 269.891C159.716 270.095 159.884 270.344 159.991 270.621C160.098 270.898 160.142 271.195 160.121 271.491C162.121 273.111 161.021 276.331 159.701 278.571C162.831 280.254 166.485 280.683 169.921 279.771ZM121.581 263.771C125.101 263.351 126.121 263.771 127.321 262.371C127.701 261.891 125.481 260.171 125.701 255.611C124.501 255.671 123.3 255.671 122.101 255.611C121.261 255.611 120.401 255.731 119.321 257.271C119.041 259.391 119.281 263.691 121.581 263.691V263.771ZM120.621 266.851C121.801 269.131 126.181 268.711 125.201 267.071C125.151 266.976 125.082 266.893 124.999 266.826C124.915 266.759 124.819 266.71 124.716 266.682C124.613 266.654 124.505 266.647 124.399 266.663C124.293 266.678 124.192 266.715 124.101 266.771C123.668 267.03 123.158 267.127 122.66 267.047C122.163 266.966 121.709 266.713 121.381 266.331C121.308 266.265 121.217 266.223 121.119 266.212C121.022 266.202 120.924 266.222 120.839 266.272C120.754 266.321 120.687 266.396 120.648 266.485C120.608 266.575 120.599 266.675 120.621 266.771V266.851ZM126.401 249.571C126.181 248.671 125.881 247.711 125.101 247.571C124.661 247.571 123.921 248.651 123.381 249.571C124.358 249.253 125.407 249.225 126.401 249.491V249.571ZM135.521 280.491C136.861 281.891 138.121 283.311 139.401 284.731C143.067 281.256 147.383 278.538 152.101 276.731C149.261 275.801 146.223 275.652 143.306 276.3C140.389 276.947 137.7 278.367 135.521 280.411V280.491ZM159.941 273.871C159.894 273.593 159.807 273.323 159.681 273.071C159.579 273.758 159.39 274.43 159.121 275.071C158.861 275.671 158.121 275.311 158.401 274.671C158.794 273.756 158.978 272.766 158.941 271.771C158.941 271.351 158.941 270.971 158.601 270.971C158.261 270.971 158.181 272.971 157.981 273.491C157.781 274.011 156.801 273.891 157.041 273.211C157.305 272.333 157.506 271.438 157.641 270.531C157.549 270.236 157.376 269.972 157.141 269.771C156.901 269.931 156.661 271.771 156.281 272.611C155.901 273.451 155.321 273.731 154.781 273.131C154.521 272.851 153.981 272.211 153.721 271.991C153.721 272.831 155.301 273.891 154.621 276.491C155.323 276.699 155.976 277.045 156.543 277.508C157.109 277.972 157.578 278.544 157.921 279.191C159.15 277.651 159.858 275.76 159.941 273.791V273.871ZM127.101 343.871C127.207 347.519 126.912 351.168 126.221 354.751C135.401 353.911 155.381 349.891 157.901 349.291C168.781 346.711 169.901 336.431 169.901 325.291C169.901 314.151 170.641 310.611 168.861 309.111C168.548 308.889 168.192 308.738 167.815 308.669C167.438 308.6 167.051 308.614 166.681 308.711C164.511 309.151 162.463 310.058 160.681 311.371C152.281 317.011 138.441 313.771 132.821 307.711C129.589 304.521 127.658 300.244 127.401 295.711C125.141 294.611 122.861 293.511 121.941 293.031C115.421 299.231 121.941 307.551 114.061 314.131C121.692 322.216 126.279 332.699 127.041 343.791L127.101 343.871ZM113.381 389.131C118.041 389.491 118.701 389.591 118.321 389.131C117.941 388.671 116.321 388.411 114.941 387.431C113.561 386.451 113.721 385.971 113.361 386.151C112.392 386.603 111.315 386.773 110.254 386.642C109.193 386.511 108.191 386.085 107.361 385.411C107.361 386.331 107.261 388.211 107.221 388.851C108.461 388.691 111.041 388.871 113.381 389.051V389.131ZM113.541 382.051L108.181 380.611C108.181 381.391 107.921 383.051 107.821 383.691C109.341 385.551 111.081 385.451 113.161 384.491C113.201 383.831 113.401 382.751 113.541 381.971V382.051ZM94.5 335C96.8596 339.777 92.0766 333.253 94.24 336.037C94.3957 336.238 94.5875 336.486 94.8205 336.791C95.1405 337.251 94.2406 348.411 87.6006 359.311C93.1406 358.691 101.121 357.791 104.921 357.311C104.921 353.171 104.921 348.931 105.141 344.691C103.151 343.196 101.279 341.551 99.5405 339.771C96.8736 336.404 95.5866 335.49 94.2682 333.991C93.3519 332.949 92.4205 331.626 91 329C90.26 327.14 92.24 329.42 93 331.5L94.0405 333L94.2682 333.991L94.5 335ZM104.221 323.271L103.841 315.271C100.584 315.582 97.3111 315.695 94.0405 315.611V323.031L99.7805 326.311L104.221 323.271ZM95.2005 301.531C101.93 304.099 108.058 308.028 113.201 313.071C121.201 306.071 113.921 298.911 120.841 292.291L119.201 291.351C119.105 291.287 119.036 291.192 119.006 291.081C118.975 290.971 118.984 290.854 119.033 290.75C119.081 290.646 119.165 290.563 119.269 290.515C119.373 290.468 119.491 290.459 119.601 290.491C135.861 296.871 141.721 304.311 150.201 293.871C152.637 291.148 154.763 288.163 156.541 284.971C156.969 284.186 157.216 283.315 157.265 282.423C157.313 281.53 157.161 280.638 156.821 279.811C155.001 275.711 150.121 278.431 146.421 280.971C143.941 282.651 140.541 285.671 139.901 286.151C139.697 286.235 139.475 286.267 139.256 286.246C139.036 286.226 138.825 286.152 138.641 286.031C137.581 284.951 130.501 276.291 126.641 274.431C125.881 273.991 125.041 273.591 124.281 273.151C123.298 272.828 122.287 272.601 121.261 272.471C119.261 271.651 116.121 268.251 118.761 254.471C119.08 253.097 119.873 251.879 121.001 251.031C121.557 249.574 122.355 248.222 123.361 247.031C117.021 246.731 110.701 249.551 105.041 252.491C104.139 252.886 103.344 253.489 102.721 254.251C100.881 257.251 103.981 259.991 107.061 261.451C107.175 261.496 107.266 261.585 107.315 261.697C107.364 261.81 107.366 261.937 107.321 262.051C107.275 262.165 107.187 262.256 107.074 262.305C106.962 262.354 106.835 262.356 106.721 262.311C105.629 261.957 104.592 261.452 103.641 260.811C104.027 263.3 104.698 265.736 105.641 268.071C105.861 268.691 106.181 269.251 105.781 269.551C105.381 269.851 105.421 269.551 105.141 269.551C95.1405 268.711 92.9606 269.031 85.1406 270.891C85.0261 270.898 84.9114 270.88 84.8044 270.838C84.6975 270.797 84.6007 270.733 84.5206 270.651C82.1006 267.351 75.6206 262.651 72.2606 260.371C70.2606 258.931 67.6806 261.511 68.5806 264.811C69.3835 266.936 70.5175 268.92 71.9406 270.691C75.4806 275.871 80.4606 282.011 87.6006 283.731C88.1806 282.531 88.7405 281.291 89.2605 280.131C89.5205 279.531 90.5005 279.931 90.2605 280.531C86.1005 291.411 84.5406 290.031 80.9606 295.751C79.4701 298.51 78.6416 301.577 78.5406 304.711C81.0406 301.691 86.5605 297.871 95.2005 301.451V301.531ZM69.4806 351.871C70.4206 349.871 71.3605 347.991 72.2805 346.051C71.838 339.308 71.9183 332.541 72.5206 325.811C72.9206 321.551 74.8005 310.671 76.9005 306.891C76.2805 294.891 83.7205 291.491 86.9005 285.031C79.6405 283.251 74.5206 277.031 71.2606 272.471C69.9544 270.8 68.784 269.028 67.7606 267.171C67.5806 283.431 66.7406 336.251 66.9406 342.331C67.2604 345.603 68.1186 348.799 69.4806 351.791V351.871ZM68.7006 374.231L63.8606 370.811C63.4206 371.491 62.3206 373.131 61.8606 373.671C61.8606 375.491 63.0206 376.871 65.8606 377.311C66.7314 376.192 67.6804 375.136 68.7006 374.151V374.231ZM67.5605 384.231C67.6805 384.111 67.6606 383.711 67.3806 383.371C66.4438 381.955 65.7665 380.384 65.3806 378.731C64.3103 378.587 63.3021 378.145 62.4711 377.455C61.6401 376.766 61.0196 375.856 60.6806 374.831C60.1006 375.571 59.2406 376.831 58.6806 377.611C61.4406 379.411 67.2005 384.531 67.5605 384.151V384.231Z" fill="black"/>
<path d="M212.481 91.1109C210.414 93.3431 209.026 96.1182 208.481 99.1109C208.181 100.911 207.681 124.831 210.701 127.111C214.341 129.911 219.961 121.831 225.921 122.291C236.501 123.491 243.661 137.311 236.841 148.431C232.461 155.591 223.041 159.251 218.941 156.851C217.647 155.68 216.067 154.873 214.361 154.511C206.561 153.711 210.001 171.131 209.741 176.511C209.521 180.631 209.141 188.331 216.681 191.011C222.681 193.011 229.041 191.731 234.681 190.251C241.001 188.571 249.181 186.251 251.421 192.471C251.44 192.515 251.451 192.563 251.451 192.611C251.451 192.659 251.44 192.707 251.421 192.751C250.55 193.937 249.793 195.202 249.161 196.531C246.061 202.951 246.501 205.191 249.161 209.931C262.441 228.511 286.921 205.931 275.981 192.411C275.39 191.905 274.917 191.276 274.595 190.567C274.274 189.859 274.112 189.089 274.121 188.311C274.861 185.011 278.721 184.311 281.541 183.871L300.001 180.751C314.841 178.751 314.801 174.331 315.341 162.951C316.527 139.925 316.474 116.851 315.181 93.8309C314.881 87.8309 314.461 79.8309 308.001 75.8309C303.541 73.1709 279.361 77.8309 259.161 80.7709C245.961 82.6509 232.321 84.4909 222.701 86.5709C218.201 87.5709 215.041 88.4109 212.421 91.1109H212.481Z" fill="#FFC8CC"/>
<path d="M169.401 224.811C169.401 216.811 166.901 208.331 169.661 200.331C171.101 196.131 173.201 195.871 176.361 196.891C179.604 197.998 183.118 198.033 186.384 196.993C189.65 195.952 192.495 193.89 194.501 191.111C203.041 179.311 192.301 159.471 177.401 167.851C175.723 168.935 174.32 170.393 173.301 172.111C172.874 172.338 172.397 172.453 171.914 172.445C171.431 172.438 170.958 172.309 170.539 172.069C170.12 171.829 169.768 171.487 169.516 171.075C169.265 170.663 169.122 170.193 169.101 169.711C169.301 169.711 168.941 171.171 169.621 152.851C169.821 146.311 170.681 137.731 165.421 133.591C159.421 129.791 151.421 131.271 145.821 132.511C149.585 140.056 152.71 147.903 155.161 155.971C155.378 156.392 155.439 156.876 155.333 157.337C155.226 157.799 154.96 158.208 154.581 158.491C154.721 158.811 154.941 159.371 155.041 159.611C157.301 161.191 162.741 161.371 162.181 163.791C161.941 164.851 152.561 167.791 151.941 168.171C150.381 168.951 150.541 168.891 148.681 164.051C148.599 163.883 148.557 163.698 148.557 163.511C148.557 163.324 148.599 163.139 148.681 162.971C148.545 162.671 148.425 162.363 148.321 162.051C147.481 162.411 146.321 162.831 145.421 161.811C135.421 149.231 135.761 142.891 129.661 142.031C129.336 145.158 128.631 148.235 127.561 151.191L127.508 151.349C126.837 153.361 121.647 168.94 121.241 169.791C121.045 170.218 120.745 170.59 120.367 170.869C119.989 171.149 119.547 171.329 119.081 171.391C119.081 172.071 118.481 170.971 122.921 176.051C123.441 176.651 124.221 177.551 123.761 178.491C123.595 178.777 123.35 179.009 123.056 179.158C122.761 179.307 122.429 179.367 122.101 179.331C121.901 179.331 111.721 178.271 111.321 177.991C111.176 177.865 111.071 177.699 111.018 177.515C110.964 177.331 110.965 177.135 111.021 176.951C111.481 174.051 111.021 172.591 111.841 172.031C111.841 171.631 111.941 170.851 112.001 170.431C110.986 170.133 110.822 169.083 110.722 168.442L110.721 168.431C109.041 158.871 110.621 151.291 109.641 142.791C107.081 141.951 104.501 140.991 101.841 139.931C101.841 145.271 102.621 173.811 102.661 177.931C104.481 196.051 88.5205 203.811 94.2205 218.331C94.2617 218.472 94.2493 218.624 94.1857 218.757C94.1221 218.89 94.0118 218.995 93.8759 219.052C93.7399 219.109 93.5877 219.114 93.4484 219.065C93.3091 219.017 93.1924 218.92 93.1205 218.791C89.6005 211.211 92.4805 204.791 96.3205 197.491C103.001 184.691 101.241 187.491 100.561 139.491L99.8605 139.191L99.4964 139.221C91.6603 139.874 74.6503 141.292 70.2006 147.711C68.6687 149.987 67.8984 152.69 68.0005 155.431C67.8005 181.431 67.9006 194.571 69.7006 240.631C70.8006 252.171 94.0406 247.291 103.961 246.931C106.721 246.931 109.621 246.631 108.381 244.171C107.681 242.951 106.161 242.471 104.961 241.731C100.721 239.091 98.4005 227.351 107.381 219.531C121.381 207.411 143.381 220.431 132.761 239.991C130.301 243.991 133.941 244.271 138.581 243.711C138.581 243.711 154.461 242.331 157.921 241.971C168.321 240.811 169.401 229.591 169.401 224.811Z" fill="#D9F3FF"/>
<path d="M172.261 298.111C173.773 301.887 176.702 304.923 180.421 306.571C184.388 307.838 188.693 307.508 192.421 305.651C195.961 303.971 197.701 301.751 200.861 302.791C200.919 302.811 200.969 302.849 201.005 302.899C201.04 302.95 201.06 303.009 201.061 303.071C201.061 328.271 199.421 331.931 203.061 337.531C204.021 339.051 207.361 342.511 217.401 341.711C222.701 341.291 275.401 334.691 287.061 333.211C286.588 329.474 286.655 325.689 287.261 321.971C286.421 320.851 286.121 320.571 286.321 320.311C293.261 311.071 293.301 311.731 296.041 307.591C297.126 305.746 298.474 304.069 300.041 302.611C300.779 302.17 301.365 301.515 301.723 300.732C302.08 299.95 302.191 299.078 302.041 298.231C299.781 295.751 299.861 292.231 300.361 288.591C292.361 291.891 283.201 291.731 281.621 291.131C279.981 291.831 273.021 292.751 273.621 290.351C271.961 290.211 271.621 288.871 272.201 288.071C272.043 287.955 271.915 287.805 271.825 287.631C271.734 287.458 271.685 287.266 271.681 287.071C271.681 285.631 273.901 286.071 275.161 286.331C275.841 286.471 275.741 286.491 275.661 286.231L275.643 286.175C275.406 285.428 275.139 284.582 275.861 284.231C277.041 283.671 277.421 285.711 279.601 286.231C279.601 285.651 278.941 285.911 290.001 280.231C294.681 277.831 295.441 277.851 297.501 272.991C299.355 268.882 301.793 265.062 304.741 261.651C303.953 260.817 303.281 259.882 302.741 258.871C301.605 259.34 300.342 259.396 299.169 259.031C297.997 258.665 296.989 257.901 296.321 256.871C294.939 254.935 293.81 252.832 292.961 250.611C292.421 250.224 291.906 249.803 291.421 249.351C290.341 249.951 288.241 248.711 288.601 247.611C287.541 247.371 286.601 246.291 287.141 245.471C285.981 245.111 285.821 243.751 286.661 242.731C286.021 242.011 286.921 240.611 287.381 239.811C286.921 239.111 287.741 237.811 288.421 237.431C288.339 237.129 288.329 236.812 288.393 236.505C288.456 236.199 288.59 235.912 288.785 235.666C288.979 235.421 289.229 235.225 289.513 235.094C289.797 234.963 290.108 234.9 290.421 234.911C290.421 233.571 291.541 231.951 292.881 232.331C293.041 230.691 293.801 229.851 295.461 230.171C295.658 229.865 295.918 229.603 296.222 229.403C296.527 229.202 296.87 229.068 297.229 229.007C297.589 228.947 297.957 228.963 298.31 229.053C298.663 229.143 298.994 229.306 299.281 229.531C299.424 228.975 299.774 228.496 300.261 228.191C299.709 227.031 298.787 226.088 297.641 225.511C293.421 223.511 289.281 224.051 285.321 224.491C285.181 224.491 270.761 226.491 267.481 227.411C266.675 227.541 265.913 227.864 265.258 228.351C264.604 228.839 264.076 229.477 263.721 230.211C263.361 231.231 263.921 232.011 265.021 234.871C267.161 240.431 268.521 247.311 265.961 252.651C257.161 267.891 230.281 258.011 237.001 239.711C238.741 237.051 239.001 235.051 237.881 233.711C233.261 228.591 208.361 234.971 205.881 236.271C204.725 236.87 203.661 237.631 202.721 238.531C201.956 239.465 201.379 240.538 201.021 241.691C200.081 244.671 199.561 259.971 199.721 278.871C199.721 278.928 199.707 278.983 199.678 279.033C199.65 279.082 199.61 279.123 199.561 279.151C199.081 279.411 197.421 277.151 191.561 275.651C188.302 274.647 184.798 274.793 181.635 276.064C178.471 277.334 175.84 279.653 174.181 282.631C170.921 288.311 170.361 293.531 172.181 298.091L172.261 298.111Z" fill="#D9F3FF"/>
<path d="M127.101 343.871C127.207 347.519 126.912 351.168 126.221 354.751C135.401 353.911 155.381 349.891 157.901 349.291C168.781 346.711 169.901 336.431 169.901 325.291C169.901 314.151 170.641 310.611 168.861 309.111C168.548 308.889 168.192 308.738 167.815 308.669C167.438 308.6 167.051 308.614 166.681 308.711C164.511 309.151 162.463 310.058 160.681 311.371C152.281 317.011 138.441 313.771 132.821 307.711C129.589 304.521 127.658 300.244 127.401 295.711C125.141 294.611 122.861 293.511 121.941 293.031C115.421 299.231 121.941 307.551 114.061 314.131C121.692 322.216 126.279 332.699 127.041 343.791L127.101 343.871Z" fill="#98C7FF"/>
<path d="M169.921 279.771L170.461 278.951C170.844 271.1 170.55 263.231 169.581 255.431C169.466 252.596 168.913 249.796 167.941 247.131C164.541 240.111 144.201 245.011 137.701 245.271C135.341 245.551 132.681 245.691 131.141 243.891C129.601 242.091 130.741 240.391 131.541 238.911C132.761 236.872 133.548 234.602 133.851 232.245C134.154 229.887 133.966 227.493 133.301 225.211C125.841 209.211 100.641 216.691 102.881 234.371C103.701 241.371 106.881 240.031 109.141 242.531C109.609 242.989 109.941 243.568 110.1 244.204C110.259 244.839 110.238 245.506 110.041 246.131C109.241 248.131 106.881 248.131 105.181 248.331C100.241 248.631 89.2806 249.511 76.9806 250.731C72.3806 251.171 71.7206 251.871 70.6606 253.031C70.1163 253.631 69.6586 254.304 69.3006 255.031C69.9452 256.116 70.4302 257.288 70.7406 258.511C71.849 258.593 72.8917 259.068 73.6806 259.851C77.8598 262.71 81.6746 266.068 85.0406 269.851C91.308 268.137 97.8463 267.641 104.301 268.391C103.287 265.63 102.615 262.755 102.301 259.831C101.798 259.297 101.407 258.668 101.149 257.981C100.892 257.295 100.773 256.564 100.801 255.831C100.961 252.591 104.001 251.431 107.241 249.831C110.115 248.279 113.191 247.134 116.381 246.431C119.21 245.803 122.13 245.688 125.001 246.091C127.001 246.251 127.381 248.591 127.601 250.091C128.553 250.662 129.383 251.416 130.041 252.311C130.078 252.36 130.098 252.419 130.098 252.481C130.098 252.542 130.078 252.602 130.041 252.651C129.801 253.011 129.321 252.411 127.281 252.891C128.839 253.7 130.049 255.052 130.681 256.691C130.703 256.75 130.706 256.814 130.69 256.874C130.673 256.935 130.638 256.989 130.59 257.029C130.541 257.069 130.481 257.092 130.419 257.096C130.356 257.1 130.294 257.084 130.241 257.051C129.209 256.359 128.055 255.87 126.841 255.611C126.778 257.368 127.193 259.11 128.041 260.651C128.561 261.571 129.901 262.651 126.681 264.531C127.621 267.131 127.661 270.911 125.101 272.171C128.63 274.03 131.822 276.471 134.541 279.391C137.026 277.015 140.147 275.409 143.525 274.766C146.904 274.124 150.396 274.473 153.581 275.771C153.801 273.651 152.181 272.871 152.721 271.431C152.778 271.252 152.88 271.091 153.016 270.961C153.152 270.832 153.319 270.739 153.501 270.691C154.261 270.571 155.021 271.591 155.501 272.071C155.941 270.731 156.101 267.871 157.681 268.431C157.911 268.525 158.11 268.681 158.255 268.883C158.4 269.085 158.485 269.323 158.501 269.571C158.862 269.55 159.218 269.664 159.501 269.891C159.716 270.095 159.884 270.344 159.991 270.621C160.098 270.898 160.142 271.195 160.121 271.491C162.121 273.111 161.021 276.331 159.701 278.571C162.831 280.254 166.485 280.683 169.921 279.771Z" fill="#98C7FF"/>
<path d="M69.4806 351.871C70.4206 349.871 71.3605 347.991 72.2805 346.051C71.838 339.308 71.9183 332.541 72.5206 325.811C72.9206 321.551 74.8005 310.671 76.9005 306.891C76.2805 294.891 83.7205 291.491 86.9005 285.031C79.6405 283.251 74.5206 277.031 71.2606 272.471C69.9544 270.8 68.784 269.028 67.7606 267.171C67.5806 283.431 66.7406 336.251 66.9406 342.331C67.2604 345.603 68.1186 348.799 69.4806 351.791V351.871Z" fill="#98C7FF"/>
<path d="M94.24 336.037C94.9216 336.824 95.8077 337.647 94.5 335L94.2682 333.991C95.5866 335.49 96.8736 336.404 99.5405 339.771C101.279 341.551 103.151 343.196 105.141 344.691C104.921 348.931 104.921 353.171 104.921 357.311C101.121 357.791 93.1406 358.691 87.6006 359.311C94.2406 348.411 95.1405 337.251 94.8205 336.791C94.5875 336.486 94.3957 336.238 94.24 336.037Z" fill="#98C7FF"/>
<path d="M94.2687 338.545C94.8167 336.052 95.0332 334.432 94.5069 331.918" stroke="black"/>
<path d="M256.096 139.39C256.481 139.356 256.75 139.219 256.903 138.978C257.068 138.722 257.182 138.425 257.246 138.084L259.757 137.865C259.747 138.361 259.661 138.837 259.5 139.293C259.338 139.735 259.105 140.13 258.801 140.478C258.51 140.825 258.147 141.111 257.711 141.336C257.289 141.561 256.826 141.695 256.321 141.739L254.608 141.889C254.077 141.935 253.563 141.88 253.067 141.722C252.571 141.552 252.127 141.303 251.737 140.976C251.347 140.648 251.025 140.255 250.771 139.795C250.53 139.335 250.385 138.832 250.338 138.287L249.843 132.629C249.795 132.084 249.85 131.564 250.007 131.069C250.177 130.559 250.425 130.109 250.752 129.719C251.08 129.329 251.474 129.013 251.934 128.772C252.394 128.518 252.889 128.367 253.421 128.321L255.134 128.171C255.652 128.125 256.139 128.177 256.593 128.324C257.048 128.472 257.449 128.698 257.797 129.002C258.157 129.292 258.456 129.647 258.693 130.068C258.931 130.489 259.098 130.949 259.195 131.449L256.685 131.669C256.588 131.329 256.437 131.048 256.23 130.825C256.023 130.603 255.72 130.509 255.322 130.543L253.648 130.69C253.183 130.731 252.826 130.929 252.576 131.286C252.339 131.641 252.242 132.058 252.284 132.536L252.756 137.935C252.798 138.413 252.967 138.814 253.263 139.136C253.571 139.443 253.957 139.577 254.422 139.536L256.096 139.39ZM264.974 130.763C265.558 130.712 266.084 130.76 266.552 130.906C267.032 131.038 267.446 131.25 267.792 131.54C268.152 131.83 268.438 132.193 268.65 132.63C268.863 133.066 268.994 133.57 269.044 134.141L269.282 136.871C269.331 137.429 269.29 137.948 269.158 138.428C269.024 138.894 268.806 139.308 268.503 139.669C268.212 140.016 267.842 140.296 267.392 140.509C266.956 140.722 266.445 140.853 265.861 140.904L265.044 140.976C264.473 141.026 263.947 140.985 263.467 140.853C262.987 140.721 262.567 140.51 262.207 140.22C261.86 139.916 261.58 139.546 261.367 139.109C261.167 138.658 261.043 138.154 260.994 137.596L260.755 134.866C260.705 134.295 260.74 133.777 260.86 133.311C260.993 132.845 261.205 132.438 261.496 132.091C261.8 131.743 262.177 131.463 262.627 131.249C263.076 131.023 263.586 130.885 264.157 130.835L264.974 130.763ZM264.357 133.126C263.946 133.162 263.606 133.332 263.338 133.637C263.082 133.927 262.974 134.291 263.012 134.729L263.239 137.319C263.277 137.758 263.448 138.104 263.751 138.359C264.068 138.612 264.432 138.721 264.844 138.685L265.66 138.613C266.086 138.576 266.419 138.406 266.66 138.104C266.914 137.801 267.023 137.43 266.984 136.992L266.758 134.401C266.719 133.963 266.549 133.623 266.247 133.382C265.957 133.126 265.599 133.017 265.174 133.054L264.357 133.126ZM273.283 134.734L273.762 140.213L271.232 140.434L270.045 126.866L275.863 126.357C276.381 126.312 276.874 126.369 277.343 126.529C277.811 126.675 278.219 126.901 278.567 127.205C278.928 127.508 279.221 127.877 279.447 128.312C279.686 128.747 279.827 129.216 279.871 129.721L279.924 130.318C279.968 130.823 279.91 131.31 279.75 131.779C279.603 132.234 279.378 132.648 279.076 133.023C278.786 133.383 278.424 133.675 277.988 133.901C277.553 134.126 277.076 134.262 276.558 134.307L275.881 134.366L280.975 139.582L278.086 139.835L273.283 134.734ZM272.783 129.016L273.063 132.224L275.952 131.971C276.524 131.921 276.93 131.745 277.171 131.443C277.412 131.14 277.511 130.737 277.467 130.232C277.425 129.754 277.258 129.38 276.967 129.112C276.675 128.829 276.243 128.713 275.672 128.763L272.783 129.016ZM281.567 132.945C281.524 132.454 281.577 131.987 281.726 131.546C281.873 131.091 282.085 130.685 282.362 130.326C282.638 129.967 282.967 129.677 283.35 129.457C283.731 129.222 284.12 129.088 284.519 129.053L286.79 128.854C287.308 128.809 287.776 128.882 288.195 129.073C288.625 129.249 288.988 129.499 289.284 129.821C289.592 130.128 289.838 130.488 290.021 130.901C290.216 131.298 290.331 131.697 290.366 132.095L290.591 134.665L284.136 135.23L284.183 135.768C284.225 136.246 284.387 136.573 284.67 136.749C284.953 136.925 285.314 136.994 285.752 136.956L290.395 136.55L290.59 138.781L285.43 139.232C284.978 139.272 284.545 139.223 284.132 139.085C283.717 138.934 283.344 138.719 283.011 138.44C282.692 138.16 282.428 137.815 282.218 137.405C282.008 136.995 281.881 136.538 281.837 136.033L281.567 132.945ZM283.99 133.335L288.114 132.975L288.106 132.875C288.06 132.357 287.89 131.944 287.596 131.635C287.3 131.313 286.926 131.171 286.474 131.211L285.239 131.319C285.027 131.338 284.839 131.408 284.675 131.529C284.511 131.637 284.376 131.776 284.27 131.946C284.164 132.116 284.082 132.317 284.022 132.55C283.974 132.768 283.96 132.997 283.981 133.236L283.99 133.335ZM298.471 135.963L294.825 136.282L294.509 138.398L292.098 138.609L294.397 124.736L296.987 124.509L301.522 137.784L299.131 137.994L298.471 135.963ZM295.127 134.228L297.837 133.991L296.097 128.562L295.958 128.574L295.127 134.228Z" fill="#303030"/>
</svg>
