<svg width="400" height="400" viewBox="0 0 400 400" fill="none" xmlns="http://www.w3.org/2000/svg">
<path d="M68.0001 100.38C72.4776 97.9628 75.8828 93.9508 77.5401 89.14C89.0601 47.86 135.04 75.72 113.4 105.86C108.5 111.58 88.0601 123.52 81.1401 130.36C61.1401 150.18 51.5801 187.68 65.1401 196.84C67.5001 198.42 70.6201 199.28 72.7401 201.18C75.9801 204.3 74.2201 211.18 70.0001 212.64C44.6401 219.64 53.0801 245.02 62.1801 252.74C78.9001 265.42 101.46 256.38 100.02 234.08C98.5001 210.7 82.2001 218.2 82.9201 209.82C83.9801 199.1 95.9001 205.16 98.4601 195.82C99.2869 193.447 99.955 191.022 100.46 188.56C104.92 168 115.28 164 130.4 156.12C158 142 191.66 90 155.78 46.68C126.12 11.4 71.7801 12.16 42.2401 42.28C8.00009 81.06 44.7801 110.34 68.0001 100.38ZM57.5001 30.96C112.78 -1.17995 183.8 43.46 168.8 105.36C146.58 166.86 112.64 151.7 102.8 178.82C101.16 184 100 189.4 98.1001 194.6C93.8801 206.38 83.8801 197.4 82.3201 209.78C81.3001 218.12 94.3201 212.1 98.4401 227.64C106.06 257.32 73.8401 266.88 59.4401 248.72C50.5401 234.38 52.0401 219.12 68.3801 213.9C70.2344 213.615 71.9651 212.795 73.3601 211.54C74.7171 209.574 75.4172 207.228 75.3601 204.84C75.1601 198.06 64.7001 198.2 61.6001 192.4C57.0401 184 59.2601 148 87.7801 125.52C94.9401 119.86 112.04 111.52 116.92 101.92C129.06 76.44 100 56 83.3201 75.54C77.1801 83.68 77.6801 97.42 64.6801 101.08C61.0092 101.945 57.2019 102.063 53.4844 101.427C49.7669 100.792 46.2151 99.4154 43.0401 97.38C16.0001 80.3 31.3601 45.78 57.5001 30.96Z" fill="black"/>
<path d="M57.5001 30.96C112.78 -1.17995 183.8 43.46 168.8 105.36C146.58 166.86 112.64 151.7 102.8 178.82C101.16 184 100 189.4 98.1001 194.6C93.8801 206.38 83.8801 197.4 82.3201 209.78C81.3001 218.12 94.3201 212.1 98.4401 227.64C106.06 257.32 73.8401 266.88 59.4401 248.72C50.5401 234.38 52.0401 219.12 68.3801 213.9C70.2344 213.615 71.9651 212.795 73.3601 211.54C74.7171 209.574 75.4172 207.228 75.3601 204.84C75.1601 198.06 64.7001 198.2 61.6001 192.4C57.0401 184 59.2601 148 87.7801 125.52C94.9401 119.86 112.04 111.52 116.92 101.92C129.06 76.44 100 56 83.3201 75.54C77.1801 83.68 77.6801 97.42 64.6801 101.08C61.0092 101.945 57.2019 102.063 53.4844 101.427C49.7669 100.792 46.2151 99.4154 43.0401 97.38C16.0001 80.3 31.3601 45.78 57.5001 30.96Z" fill="#FFC8CC"/>
<path d="M72.5802 40.28C74.0202 39.22 76.5802 37.46 75.7802 35.28C75.0402 33.48 72.7202 33.68 71.1802 33.94C68.1002 34.8 52.2202 40.36 50.7202 47.64C52.6602 59.22 68.6002 42 72.5802 40.28ZM51.2402 47.4C51.6802 44 56.1202 41.5 58.6602 39.72C62.8885 37.0253 67.5712 35.121 72.4802 34.1C74.8602 33.86 76.9202 36.58 70.6802 41.08C60.1002 48.74 60.6802 48.62 58.4402 49.94C56.2002 51.26 50.6602 52 51.2402 47.4ZM154.36 105.68C162.04 99.9 163.74 82.9 155.82 78.28C150.84 76.6 153.68 86.12 153.82 89.74C154.86 94 145.12 110.14 154.36 105.68ZM151.3 101.68C155.3 92.88 154.14 90.4 153.3 81.08C153.48 77.08 157.16 79.08 158.34 81.32C165.84 96 151.38 111.16 150.6 104C150.613 103.151 150.854 102.322 151.3 101.6V101.68ZM154.12 115.82C154.12 108.44 146.46 112.66 146.68 118.24C147.26 124.18 153.22 123.68 154.12 115.82ZM150.28 112.46C157.52 110.22 151.62 125.58 148.12 120.72C146.22 118 148.58 112.98 150.28 112.46ZM65.3402 219.6C56.2002 224.62 59.8202 236.2 67.0002 231.92C72.9602 228.96 74.0002 215.88 65.3402 219.6ZM68.3402 230.24C61.5802 236.68 56.5202 226.64 64.3402 220.7C72.3402 215.52 73.2602 226.4 68.3402 230.24Z" fill="white"/>
<path d="M51.2402 47.4C51.6802 44 56.1202 41.5 58.6602 39.72C62.8885 37.0253 67.5712 35.121 72.4802 34.1C74.8602 33.86 76.9202 36.58 70.6802 41.08C60.1002 48.74 60.6802 48.62 58.4402 49.94C56.2002 51.26 50.6602 52 51.2402 47.4Z" fill="white"/>
<path d="M151.3 101.68C155.3 92.88 154.14 90.4 153.3 81.08C153.48 77.08 157.16 79.08 158.34 81.32C165.84 96 151.38 111.16 150.6 104C150.613 103.151 150.854 102.322 151.3 101.6V101.68Z" fill="white"/>
<path d="M150.28 112.46C157.52 110.22 151.62 125.58 148.12 120.72C146.22 118 148.58 112.98 150.28 112.46Z" fill="white"/>
<path d="M68.3402 230.24C61.5802 236.68 56.5202 226.64 64.3402 220.7C72.3402 215.52 73.2602 226.4 68.3402 230.24Z" fill="white"/>
<path d="M54.3928 51.3672C53.6381 51.3725 52.9851 51.1789 52.4491 50.7413C52.8425 50.9463 53.2862 51.0723 53.7477 51.1376C54.6196 51.2607 55.5872 51.1718 56.4776 50.96C55.7252 51.2185 55.0248 51.3628 54.3928 51.3672ZM60.7489 48.7379C60.6411 48.808 60.5335 48.8772 60.4261 48.9455C60.7419 48.7166 61.1074 48.4438 61.5827 48.0876C61.68 48.0146 61.782 47.9381 61.8892 47.8577C62.945 47.0658 64.5026 45.8975 67.0606 44.024C65.1033 45.595 62.8984 47.3402 60.7489 48.7379ZM72.4545 40.0622C72.3973 40.0875 72.3381 40.1156 72.2769 40.1464C73.086 39.451 73.693 38.8023 74.1304 38.2049C74.7967 37.2946 75.0809 36.4867 75.0626 35.8058C75.0441 35.1152 74.7146 34.5842 74.2208 34.2496C74.1695 34.2149 74.1165 34.1823 74.0621 34.1519C74.7271 34.3246 75.2651 34.6886 75.5472 35.3707C75.8989 36.335 75.5237 37.2236 74.8299 38.0379C74.1879 38.7914 73.3123 39.4333 72.6085 39.9491C72.5562 39.9875 72.5048 40.0252 72.4545 40.0622ZM70.534 40.8772L70.5336 40.8775C65.5953 44.4529 63.0872 46.3341 61.5892 47.4577C61.4821 47.538 61.3801 47.6145 61.2828 47.6875C59.8276 48.7782 59.4213 49.0717 58.3133 49.7246C57.2351 50.36 55.3466 50.8585 53.8177 50.6425C53.0578 50.5351 52.4159 50.2557 51.9961 49.7613C51.5805 49.2719 51.3495 48.5323 51.4882 47.4317C51.6959 45.8277 52.8542 44.4052 54.3255 43.1422C55.398 42.2217 56.6034 41.4123 57.677 40.6914C58.0735 40.4253 58.452 40.1711 58.7991 39.9279C62.997 37.2534 67.6452 35.3626 72.5181 34.3475C73.0609 34.2954 73.5697 34.4125 73.9403 34.6635C74.3071 34.9121 74.5488 35.2973 74.5628 35.8192C74.5771 36.3509 74.3549 37.0517 73.7269 37.9095C73.1001 38.7658 72.0807 39.7618 70.534 40.8772ZM150.85 103.988C150.865 103.207 151.084 102.444 151.487 101.775L151.528 101.783C153.536 97.3655 154.258 94.5125 154.365 91.5841C154.439 89.5633 154.217 87.5035 153.935 84.8778C153.812 83.7323 153.678 82.4791 153.551 81.0746C153.597 80.1158 153.849 79.5769 154.162 79.3032C154.469 79.0351 154.888 78.975 155.383 79.1022C155.88 79.2299 156.423 79.5415 156.918 79.9649C157.41 80.3868 157.84 80.9071 158.118 81.4351C161.818 88.6784 160.104 96.0455 157.36 100.724C155.984 103.069 154.369 104.703 153.086 105.316C152.442 105.623 151.935 105.65 151.582 105.463C151.234 105.278 150.946 104.837 150.85 103.988ZM151.213 101.265L151.179 101.321C151.204 101.231 151.229 101.14 151.256 101.049C151.541 100.052 151.891 98.986 152.249 97.9105C152.291 97.7832 152.334 97.6559 152.376 97.5285C152.692 96.5807 153.008 95.6315 153.283 94.7279C153.46 94.1485 153.62 93.5854 153.754 93.0508C153.488 95.3554 152.762 97.8094 151.213 101.265ZM153.164 82.2977C153.251 83.1894 153.339 84.0142 153.422 84.7864C153.306 83.9397 153.208 83.0916 153.164 82.2977ZM153.833 78.9268C153.623 79.1106 153.452 79.3566 153.323 79.6669C153.393 79.4038 153.485 79.1739 153.601 78.9824C153.789 78.6725 154.036 78.4706 154.363 78.3831C154.694 78.2948 155.133 78.3156 155.716 78.5089C156.017 78.6854 156.303 78.8805 156.575 79.093C156.227 78.8757 155.864 78.7095 155.507 78.6179C154.913 78.4651 154.304 78.5149 153.833 78.9268ZM160.735 90.7031C160.807 87.8036 160.26 84.7092 158.771 81.6254C160.229 84.0652 160.857 87.3116 160.735 90.7031ZM157.791 100.977C158.924 99.0453 159.887 96.662 160.383 94.017C159.566 98.6558 157.413 103.058 154.229 105.466C153.096 106.01 152.29 106.221 151.736 106.201C151.462 106.19 151.259 106.124 151.107 106.023C150.956 105.921 150.839 105.774 150.754 105.573C150.698 105.439 150.657 105.284 150.63 105.109C150.8 105.472 151.039 105.74 151.347 105.904C151.904 106.2 152.596 106.104 153.301 105.767C154.714 105.092 156.392 103.361 157.791 100.977ZM150.353 112.699L150.354 112.699C151.229 112.428 151.868 112.436 152.322 112.605C152.768 112.772 153.072 113.109 153.256 113.58C153.634 114.546 153.488 116.034 152.991 117.492C152.495 118.944 151.678 120.287 150.799 120.967C150.363 121.305 149.936 121.461 149.54 121.42C149.15 121.38 148.734 121.143 148.324 120.576C147.443 119.313 147.532 117.476 148.087 115.846C148.362 115.037 148.746 114.299 149.16 113.736C149.581 113.162 150.007 112.805 150.353 112.699ZM147.915 120.863L147.917 120.866C148.383 121.512 148.915 121.858 149.489 121.917C150.058 121.976 150.61 121.746 151.105 121.362C152.092 120.599 152.952 119.153 153.464 117.653C153.57 117.343 153.662 117.027 153.738 116.71C153.151 119.993 151.618 121.658 150.227 121.961C149.478 122.124 148.737 121.906 148.139 121.298C147.537 120.686 147.072 119.666 146.93 118.223C146.869 116.637 147.473 115.164 148.349 114.063C148.066 114.548 147.812 115.101 147.614 115.684C147.039 117.373 146.897 119.406 147.915 120.863ZM68.1864 230.043L68.1767 230.051L68.1678 230.059C66.5093 231.639 64.9939 232.172 63.7882 232.053C62.5884 231.935 61.6354 231.165 61.0996 230.008C60.0269 227.689 60.6541 223.818 64.4839 220.905C66.4528 219.632 67.9279 219.385 68.9581 219.704C69.98 220.021 70.6473 220.922 70.9422 222.146C71.237 223.37 71.147 224.881 70.6781 226.324C70.2095 227.766 69.3692 229.12 68.1864 230.043ZM60.2943 229.194C60.2928 229.187 60.2913 229.18 60.2898 229.173C60.3757 229.542 60.4953 229.892 60.6458 230.217C61.2425 231.507 62.3332 232.412 63.7391 232.55C64.4262 232.618 65.174 232.501 65.961 232.171C64.6091 232.745 63.4455 232.706 62.5321 232.28C61.4128 231.758 60.6119 230.631 60.2943 229.194ZM66.8722 231.705C66.7489 231.779 66.6269 231.847 66.5062 231.911C67.1536 231.565 67.8232 231.077 68.5038 230.429C68.6859 230.287 68.86 230.135 69.0262 229.975C68.4132 230.699 67.6957 231.295 66.889 231.696L66.8804 231.7L66.8722 231.705Z" stroke="black" stroke-width="0.5"/>
<path d="M389.86 294.22C379.52 294.58 339.28 293.64 326.86 293.6C326.62 286.22 327.56 275.88 321.42 275.76C321.42 275.76 321.54 273.88 318.46 273.76C318.46 273.22 318.46 268.56 316.7 269.22C319.04 257.84 327.44 200.58 327.46 200.42C327.343 201.656 327.543 202.902 328.04 204.04C330.2 206.94 334.04 203.02 329.82 200.7C332.494 200.525 335.037 199.484 337.065 197.733C339.094 195.983 340.496 193.619 341.06 191C341.478 188.212 340.946 185.365 339.549 182.916C338.152 180.467 335.972 178.56 333.36 177.5C339.36 175.86 342.98 170.32 345.66 164.98C355.04 146.26 361.46 122.98 361.52 119.56C361.52 112.66 355.02 110.08 349.4 108.54C363.26 90.4 343.4 55.1 314.02 63.1C310.02 45.1 310.12 27.66 304.24 24.36C300.86 22.36 297.14 24.58 293.94 25.84C289.94 27.42 285.22 28.22 282.36 31.72C279.86 34.8 280.36 38.68 281.34 42.24C284.02 53.12 292.74 87.02 294.28 93.12C294.98 95.9 295.94 100.72 299.42 100.66C298.49 101.516 297.847 102.638 297.579 103.873C297.311 105.108 297.43 106.395 297.92 107.56C291.92 110.66 290.76 119.42 297.5 125.56C298.28 126.28 309.5 133.04 299.26 133.9C297.161 134.101 295.17 134.928 293.546 136.272C291.921 137.617 290.737 139.418 290.147 141.442C289.557 143.467 289.588 145.622 290.235 147.629C290.883 149.636 292.118 151.402 293.78 152.7C295.614 154.033 297.745 154.9 299.988 155.228C302.232 155.555 304.521 155.333 306.66 154.58C306.624 155.039 306.624 155.501 306.66 155.96C306.3 161.26 299.6 163 301.22 159.8C302.477 157.848 304.287 156.316 306.42 155.4C306.64 155.4 306.42 154.94 306.24 155.02C302.44 156.12 298.52 161.36 301.64 161.86C302.852 161.77 304.005 161.301 304.935 160.518C305.865 159.735 306.525 158.679 306.82 157.5C307.68 167.34 315.76 269.14 315.8 269.5C314 269.74 314.7 273.5 314.76 273.98C313.52 273.7 312.76 274.72 312.76 275.8C305.1 276.18 305.98 286.48 305.94 294.5C299.8 294.3 282.5 294.16 263.5 294.06C266.22 256.24 265.3 210.06 263.26 204.46C264.528 203.407 265.521 202.061 266.152 200.538C266.783 199.015 267.033 197.361 266.88 195.72C266.44 186.3 266.88 176.68 265.88 167.32C265.88 167.2 276.4 150.8 266.32 133.14C260.32 122.52 244.78 114.1 233 110.48C232.742 106.647 233.141 102.798 234.18 99.1C236.04 96.46 241.84 85.26 240.48 75.72C238.88 64.68 225.48 65.26 219.42 66.34C216.085 67.059 212.613 66.8021 209.42 65.6C210.002 66.1361 210.681 66.5568 211.42 66.84C213.085 67.4611 214.829 67.8449 216.6 67.98C216.6 67.98 216.16 68.86 211.42 67.98C206.68 67.1 205.42 64.38 203.54 63.58C201.66 62.78 202 76.46 206 78.48C206.819 78.8935 207.707 79.1512 208.62 79.24C207.517 82.8451 206.727 86.5389 206.26 90.28C205.66 95.18 204.88 100.56 208.26 104.12C210.88 106.8 211.9 103.88 212.1 110.12C210.58 108.78 184.3 113.24 176.1 138.44C176.715 139.442 177.455 140.363 178.3 141.18C168 158.9 167.16 173.38 167.68 195.56C165.44 195.56 165.34 200.08 165.92 202.2C165.48 203.02 164.48 202.46 164.26 201.86C162.5 198.02 164.26 195.2 166.02 196.7C166.52 197.08 165.3 195.28 163.9 196.5C162.5 197.72 163.36 202.5 164.88 203.08C164.989 203.125 165.106 203.148 165.223 203.147C165.341 203.146 165.458 203.122 165.566 203.075C165.674 203.029 165.772 202.961 165.853 202.876C165.935 202.791 165.998 202.69 166.04 202.58C166.6 204.02 167.72 204.1 168.04 203.4C168.98 204.84 171.6 201.8 172.04 199.9C176.921 200.997 181.873 201.745 186.86 202.14C186.56 203 185.54 205.32 186.28 205.74C186.411 205.8 186.556 205.82 186.698 205.799C186.84 205.778 186.973 205.716 187.08 205.62C187.08 205.86 186.72 206.56 187.08 206.42C188.209 206.096 189.226 205.466 190.02 204.6C189.48 206.6 190.6 207.4 192.28 205.38L193.16 204.18C194.42 202.7 195.74 204.34 195.62 205.66C193 205.32 190.44 209.4 192.82 211.66C192.12 210.64 153.4 207.04 162.82 199.5C162.98 199.5 162.82 199.2 162.68 199.26C162.243 199.458 161.861 199.758 161.565 200.135C161.269 200.512 161.068 200.955 160.98 201.426C160.892 201.897 160.918 202.382 161.058 202.841C161.197 203.299 161.445 203.718 161.78 204.06C163.36 206.06 174.68 208.42 177.6 209.04C177.6 209.04 177.16 265.2 177.12 267.26C174.74 267.38 170.9 269.04 171.64 272.04C171.46 278.52 171.38 286.6 171.38 295.12C161.6 294.64 124.64 294.18 88.4601 293.86C101.58 269.86 77.4201 253.18 82.8001 258.72C94.2601 272.3 92.7001 283.32 87.0601 293.84C50.4801 293.52 15.0601 293.32 9.94009 293.4C9.9141 293.41 9.89182 293.428 9.87613 293.452C9.86044 293.475 9.85205 293.502 9.85205 293.53C9.85205 293.558 9.86044 293.585 9.87613 293.609C9.89182 293.632 9.9141 293.65 9.94009 293.66C28.3001 293.94 57.7801 294.32 86.6201 294.66C83.5201 300.22 79.3201 305.66 75.4001 311.26C63.5801 330.52 61.7201 363.82 83.2001 365.08C84.2358 367.541 85.7599 369.765 87.6801 371.62C106.3 386.58 119.22 368.38 131.44 358.64C141.44 350.94 156.9 349.84 168.48 354.54C168.48 356.42 168.82 356.78 172.22 357.42V361.72C170.42 361 168.52 360.56 166.72 359.84C166.42 359.72 166.42 360.18 154.72 369.74C153.98 370.36 184.48 379.84 185.38 380.08C186.82 380.48 194.44 372.66 197.94 369.58C198.62 368.96 197.24 369.32 189.12 365.98C190.52 365.86 194.58 365.5 195.5 365.32C196.42 365.14 193.66 359.6 198.68 350.7C200.178 350.559 201.659 350.271 203.1 349.84C204.16 345.12 209.38 332.98 215.1 294.28H222.98C225.185 312.96 228.558 331.483 233.08 349.74C234.995 350.841 237.122 351.523 239.32 351.74C239.32 353.04 239.32 354.34 239.44 355.64C236.965 357.812 234.286 359.741 231.44 361.4C227.82 363.22 228.98 366.6 232.4 367.02C235.82 367.44 251.1 367.98 253.6 367.02C256.1 366.06 253.34 356.1 254.3 350.72C255.503 350.507 256.686 350.2 257.84 349.8C257.84 349.8 260.48 332.64 263.26 294.68C283.64 294.82 301.26 294.88 305.76 294.82C305.66 311.84 306.04 342.06 306.22 343.04C307.28 349.04 320.12 351.34 325.52 344.62C328.04 341.48 327.18 309.6 326.66 294.1C339.08 294.86 379.42 295.62 389.64 294.5C390 294.48 390 294.2 389.86 294.22ZM253.52 357.84C247.16 364.3 240.78 356.12 240.14 355.48V351.82C244.714 351.764 249.281 351.45 253.82 350.88C253.58 353.2 253.56 355.52 253.52 357.84ZM263.06 204C262.02 203.34 254.7 209.34 231.06 210.58C210.56 211.64 200.56 208.58 199.06 208.08C199.415 207.58 199.634 206.997 199.697 206.387C199.76 205.778 199.665 205.162 199.42 204.6C220.98 204.36 258.9 191 260.12 169.32C261.451 169.438 262.789 169.438 264.12 169.32C264.627 168.68 265.107 168.013 265.56 167.32C264.48 188.84 269.22 198.98 263.06 204ZM167.88 202.86C166.94 202.86 166.44 202.46 166.4 201.78C165.24 195.6 168.18 194.98 168.4 197.32C167.84 199.11 167.663 200.997 167.88 202.86ZM170.2 202.16C169.76 202.68 168.9 203.82 168.2 202.16C168.115 200.631 168.277 199.098 168.68 197.62C169.26 195.9 170.88 196.98 171.58 197.96C171.788 198.718 171.768 199.521 171.523 200.268C171.278 201.015 170.817 201.673 170.2 202.16ZM172.2 199.44C172.62 196.46 169.56 195.56 168.68 196.74C168.683 196.526 168.632 196.314 168.53 196.125C168.429 195.936 168.281 195.776 168.1 195.66C169 163.5 167.82 164.8 178.64 141.44C181.077 143.888 184.132 145.63 187.48 146.48C185.424 159.369 184.301 172.389 184.12 185.44C181.12 190.3 178 195.08 174.92 200C174.01 199.863 173.109 199.676 172.22 199.44H172.2ZM184.5 201.28C181.44 200.8 178.32 200.52 175.24 200.02C178.571 195.588 181.547 190.9 184.14 186C184.12 186.58 184.44 198.66 184.52 201.28H184.5ZM184.5 201.28C184.86 189.62 184.06 162.3 189.36 139.28C189.35 139.254 189.332 139.232 189.309 139.216C189.285 139.2 189.258 139.192 189.23 139.192C189.202 139.192 189.175 139.2 189.152 139.216C189.128 139.232 189.11 139.254 189.1 139.28C188.46 141.6 187.92 143.96 187.46 146.34C182.98 144.82 176.74 138.64 176.74 138.64C185.04 111.72 211.8 110.84 212.1 110.48C212.28 117.32 211.98 118.28 212.48 118.32C215.62 128.56 232.2 125.7 233.48 113.2C233.469 113.169 233.448 113.143 233.421 113.124C233.395 113.106 233.363 113.096 233.33 113.096C233.297 113.096 233.266 113.106 233.239 113.124C233.212 113.143 233.191 113.169 233.18 113.2C228.92 126.86 216.68 126.64 212.68 118.22C212.78 117.9 212.52 108.48 212.68 106.22C212.68 105.18 205.34 105.92 206.28 93.52C206.66 88.7033 207.504 83.9346 208.8 79.28C211.98 79.54 215.56 78.06 220.5 76.96C226.96 75.52 225.88 86.5 225.94 87.26C226 88.02 232.66 83.68 232.56 88.36C232.591 89.6239 232.178 90.8587 231.392 91.8491C230.606 92.8395 229.498 93.5229 228.26 93.78C228.38 94.8 232 98.22 233.2 99.32C231.2 110.28 233.7 114.06 233.4 112.86C233.224 112.204 233.097 111.535 233.02 110.86C270.8 123.16 276.74 147.62 264 169C252 167.64 240.64 162.02 230.48 155.48C225.56 152.36 227.5 152.6 235.12 135.48C235.12 135.32 234.96 135.18 234.88 135.34C225.58 153.14 225.14 152.92 229.14 155.66C224.18 173.16 226.48 170 218.92 175.04C209.171 181.405 200.992 189.898 195 199.88C192.14 200.22 188.48 198.34 187 201.74C186.28 201.56 185.42 201.44 184.58 201.3L184.5 201.28ZM192.5 204.26C192.14 204.68 191.12 207.14 190.5 205.44C190.634 204.654 190.849 203.883 191.14 203.14C191.148 203.084 191.138 203.026 191.11 202.976C191.082 202.926 191.039 202.887 190.986 202.864C190.934 202.842 190.876 202.837 190.82 202.85C190.765 202.864 190.716 202.896 190.68 202.94C190.54 203.22 188.1 206.52 187.48 205.72C188.018 204.326 188.687 202.987 189.48 201.72C189.64 201.5 189.28 201.28 189.12 201.5C188.368 202.561 187.763 203.718 187.32 204.94C187.06 205.1 186.72 205.28 186.46 205.04C186.2 204.8 187.46 200.86 188.92 200.3C190.92 199.56 194.74 200.9 195.22 200.18C210.54 175.84 222.56 176.18 225.44 170.18C225.94 169.12 229.12 157.02 229.44 155.86C235.94 160.08 252.22 168.22 259.64 169.2C257.32 181.2 248.76 188.72 237.9 193.98C213.9 205.6 198.52 203.62 198.96 204.56C199.284 205.203 199.369 205.939 199.2 206.639C199.032 207.338 198.621 207.955 198.04 208.38C197.86 206.7 196.98 205.84 196.04 205.7C196.48 205.7 195.5 200.86 192.64 204.28L192.5 204.26ZM192.62 208.8C193.58 205.4 197.26 205.1 197.62 208.8C196.98 213.46 192 212.2 192.76 208.82L192.62 208.8ZM178.04 209.14C180.04 209.58 182.04 209.98 184.04 210.36C184.36 211.72 184.72 260.82 183.62 267.56C183.36 269.12 183.24 271.42 181.62 272.16C176.6 274.56 178.1 264.16 178.16 261.86C178.62 253.16 178.46 218 178.18 209.16L178.04 209.14ZM177.22 267.48C177.22 273.98 181.86 274 183.22 271.58C183.799 270.389 184.152 269.1 184.26 267.78C186.02 268.42 188.26 268.64 188.86 270.78C190.48 276.9 177.32 275.78 174.86 274.78C171.12 272.88 170.7 268.9 177.36 267.5L177.22 267.48ZM95.8201 345.48C103.46 353.34 92.6001 364.44 83.9801 363.66C80.0001 353.04 86.8601 340 96.0001 345.44L95.8201 345.48ZM115.54 370.86C104.72 379.44 90.4401 376.86 84.5801 365.08C99.6601 364.46 103.88 346.34 94.5801 343.22C86.7401 340.56 78.0801 350.78 82.5801 363.62C68.8201 362.28 66.8201 346.64 68.2201 335.88C70.8201 314.34 81.7001 305.56 87.9401 294.68C127.58 295.14 165.62 295.5 171.32 295.38C171.32 321.6 171.94 351.86 171.94 351.9C169.94 351.62 168.82 351.4 168.46 353.32C138.5 343.58 127.44 362 115.68 370.82L115.54 370.86ZM170.36 356.5C169.813 356.243 169.384 355.787 169.161 355.225C168.937 354.663 168.936 354.037 169.158 353.474C169.379 352.912 169.807 352.454 170.353 352.195C170.9 351.936 171.524 351.895 172.1 352.08C172.1 353.7 172.1 355.34 172.24 356.96C171.676 356.743 171.094 356.575 170.5 356.46L170.36 356.5ZM171.9 272.5C173.08 275.66 177.58 275.96 180.38 275.94C183.18 275.92 188.06 276.14 189.22 272.66C189.22 274.1 187.22 365.86 186.44 368.42C183.44 373.92 172.64 369.4 172.78 363.78C172.88 363.26 171.88 300.42 172 272.54L171.9 272.5ZM188.04 378.18C186.38 379.76 185.36 379.52 183.28 378.94C180.26 378 156.1 370.22 156 370C155.42 368.76 162.3 364 163.44 363.12C166.76 360.38 166.2 359.64 172.44 362.16C172.313 363.73 172.538 365.309 173.1 366.78C177.22 373.52 188.54 372.48 187.4 365.76C189.98 366.76 197 369.36 197.04 369.46C197.26 369.88 189.46 376.98 188.18 378.22L188.04 378.18ZM195.18 357C193.18 358.68 188.72 358.86 187.74 358.88C187.88 356.3 188 353.2 188.14 349.78C189.3 349.9 197.1 350.74 197.94 350.68C196.879 352.718 196.002 354.846 195.32 357.04L195.18 357ZM215.18 293.8C216.96 281.8 218.24 271.52 218.24 271.52C218.24 271.52 214.48 235.06 215.64 234.7C216.8 234.34 218.62 260.2 222.92 293.82L215.18 293.8ZM316.42 267.32C316.96 254.02 313.4 159.9 313 153.32C314.964 152.019 316.501 150.169 317.42 148C320.04 140.16 312.52 137.78 312 133.28C312.461 133.798 313.042 134.196 313.691 134.439C314.341 134.682 315.04 134.762 315.728 134.674C316.416 134.585 317.071 134.33 317.638 133.93C318.205 133.53 318.666 132.998 318.98 132.38C321.4 127.52 311.4 120.96 319.76 119.3C324.32 118.4 327.48 121.04 337.6 117.14C335.6 122.6 329.32 145.7 327.6 151.56C326.14 156.64 323.96 162 324.14 167.36C324.26 170.28 324.8 173.94 326.96 176.12C321.5 176.98 316.52 180.34 315.82 186.12C315.531 189.044 316.204 191.982 317.739 194.488C319.273 196.993 321.584 198.929 324.32 200C317.56 201.6 323.34 207.66 326.82 202C324.56 212.8 318.4 256.48 316.56 267.36L316.42 267.32ZM321.56 202.74C321.56 200.74 324.84 200.2 326.98 200.34C325.86 204.38 322.42 204.54 321.7 202.78L321.56 202.74ZM330.72 204.14C329.66 205.24 327.38 204.3 327.6 200.62C329.8 200.96 332 203.02 330.86 204.18L330.72 204.14ZM358.5 113.8C361.3 116.74 360.92 120.58 359.96 124.22C358.2 130.88 348.54 157.02 345.44 163.34C342.34 169.66 338.72 175.74 331.54 177.02C331.12 177.02 331.16 177.74 331.54 177.84C343.82 180.96 343.54 199.16 328.74 200.22C327.484 199.915 326.192 199.787 324.9 199.84C312.62 194.58 313.02 178.12 327.54 176.56C329.42 176.36 323.12 174 325.2 162.86C326.14 157.8 338.36 118.02 338.08 116.86C342.189 115.223 345.85 112.632 348.76 109.3C349.78 109.78 355.3 110.32 358.64 113.84L358.5 113.8ZM300.5 100.46C300.555 100.421 300.594 100.364 300.613 100.299C300.632 100.235 300.628 100.166 300.602 100.104C300.577 100.041 300.531 99.9893 300.473 99.956C300.415 99.9227 300.347 99.91 300.28 99.92C295.14 101.38 294 90.38 293.16 87.06C278.96 31.06 276.32 32.68 292.14 27.06C296.14 25.68 301.4 22.1 305.04 25.86C309.04 29.98 310 48.26 313.24 63.24C309.415 64.2747 305.953 66.352 303.24 69.24C297.36 75.78 297.88 86.48 305.96 90.92C309.112 92.5188 312.503 93.5929 316 94.1C317.4 97.28 313.28 98.1 313.48 98.1C315.079 99.3324 316.292 100.997 316.976 102.896C317.66 104.796 317.787 106.851 317.34 108.82C308.92 110.22 303.88 104.82 298.24 107.4C297.732 106.153 297.698 104.763 298.144 103.492C298.589 102.221 299.484 101.157 300.66 100.5L300.5 100.46ZM316.18 94.14C326.18 96.32 326.74 106.94 317.7 108.76C318.237 106.844 318.199 104.812 317.591 102.916C316.983 101.021 315.832 99.3466 314.28 98.1C314.726 98.0754 315.157 97.9357 315.532 97.6946C315.908 97.4534 316.214 97.119 316.422 96.7241C316.629 96.3292 316.731 95.8872 316.716 95.4413C316.702 94.9954 316.572 94.5608 316.34 94.18L316.18 94.14ZM306.46 154.14C293.58 158.14 285.54 145.36 293.02 137.5C297.02 133.24 301.86 135.5 303.66 132.82C305.66 129.82 301.46 127.74 299.66 126.46C294.92 123.24 291.66 117 294.84 111.58C298.72 104.84 305.66 108.8 311.42 109.72C323.1 111.72 327.72 103.4 323.42 97.4C318.54 90.64 305.28 95.08 300.94 84.56C296.94 74.72 308.52 63.9 318.16 62.9C343 60.34 358.34 85.9 351.74 103.02C347.84 113.02 335.96 118.76 325.62 118.62C322.48 118.62 316.16 117.36 315.62 122.08C315.24 125.08 318.84 127.52 318.68 130.54C318.651 131.323 318.365 132.075 317.866 132.681C317.368 133.286 316.685 133.711 315.922 133.89C315.159 134.07 314.358 133.994 313.642 133.674C312.927 133.354 312.336 132.808 311.96 132.12C311.926 132.058 311.871 132.008 311.805 131.98C311.74 131.952 311.667 131.947 311.598 131.966C311.529 131.984 311.468 132.025 311.425 132.082C311.382 132.139 311.359 132.209 311.36 132.28C310.98 136.62 316.06 138.84 316.98 142.86C317.31 144.297 317.292 145.792 316.927 147.221C316.563 148.65 315.862 149.971 314.884 151.074C313.906 152.178 312.678 153.032 311.303 153.565C309.929 154.098 308.446 154.295 306.98 154.14C306.861 154.108 306.735 154.115 306.62 154.16L306.46 154.14ZM310.32 156.3C313.34 158.82 307.54 159.86 306.92 154.66C308.211 154.955 309.425 155.521 310.48 156.32L310.32 156.3ZM306.96 156.12C307.66 158.48 310.18 159.46 311.22 158.48C312.58 157.24 310.28 155.38 308.44 154.6C309.875 154.524 311.278 154.149 312.56 153.5C312.56 167.5 316.16 262.68 315.94 268.98C314.48 239.16 307.12 156.26 307.12 156.14L306.96 156.12ZM316 269.62C316.5 269.62 317.16 269.32 317.6 270.34C317.9 271.02 318.34 274.34 317.3 275.3C315.6 276.86 315.08 274.86 314.98 272.56C314.98 271.34 314.66 270 316 269.62ZM314.8 274C315.14 277.12 317.94 276.48 318.38 274.24C320.02 273.8 321.34 275.04 320.66 276.68C319.56 279.28 313.38 279.18 313.32 275.72C313.34 274.72 313.76 274.34 314.8 274ZM312.8 276.1C313.36 279.68 320.66 279.94 321.36 276.28C325.92 276.56 326.18 283.22 326.12 287.96C322.02 295.8 308.84 294.76 306.42 287.62C306.56 282.34 307.36 276.44 312.8 276.16V276.1ZM326.68 338C325.8 351.54 307.78 350 307.08 341.66C306.88 339.4 306.24 300.84 306.32 295.66C310.32 301.46 323.12 302.34 326.32 295.66C326.34 299.54 327 333.08 326.68 338Z" fill="black"/>
<path d="M306.46 154.14C293.58 158.14 285.54 145.36 293.02 137.5C297.02 133.24 301.86 135.5 303.66 132.82C305.66 129.82 301.46 127.74 299.66 126.46C294.92 123.24 291.66 117 294.84 111.58C298.72 104.84 305.66 108.8 311.42 109.72C323.1 111.72 327.72 103.4 323.42 97.4C318.54 90.64 305.28 95.08 300.94 84.56C296.94 74.72 308.52 63.9 318.16 62.9C343 60.34 358.34 85.9 351.74 103.02C347.84 113.02 335.96 118.76 325.62 118.62C322.48 118.62 316.16 117.36 315.62 122.08C315.24 125.08 318.84 127.52 318.68 130.54C318.651 131.323 318.365 132.075 317.866 132.681C317.368 133.286 316.685 133.711 315.922 133.89C315.159 134.07 314.358 133.994 313.642 133.674C312.927 133.354 312.336 132.808 311.96 132.12C311.926 132.058 311.871 132.008 311.805 131.98C311.74 131.952 311.667 131.947 311.598 131.966C311.529 131.984 311.468 132.025 311.425 132.082C311.382 132.139 311.359 132.209 311.36 132.28C310.98 136.62 316.06 138.84 316.98 142.86C317.31 144.297 317.292 145.792 316.927 147.221C316.563 148.65 315.862 149.971 314.884 151.074C313.906 152.178 312.678 153.032 311.303 153.565C309.929 154.098 308.446 154.295 306.98 154.14C306.861 154.108 306.735 154.115 306.62 154.16L306.46 154.14Z" fill="#D9F3FF"/>
<path d="M358.5 113.8C361.3 116.74 360.92 120.58 359.96 124.22C358.2 130.88 348.54 157.02 345.44 163.34C342.34 169.66 338.72 175.74 331.54 177.02C331.12 177.02 331.16 177.74 331.54 177.84C343.82 180.96 343.54 199.16 328.74 200.22C327.484 199.915 326.192 199.787 324.9 199.84C312.62 194.58 313.02 178.12 327.54 176.56C329.42 176.36 323.12 174 325.2 162.86C326.14 157.8 338.36 118.02 338.08 116.86C342.189 115.223 345.85 112.632 348.76 109.3C349.78 109.78 355.3 110.32 358.64 113.84L358.5 113.8Z" fill="#98C7FF"/>
<path d="M300.5 100.46C300.555 100.421 300.594 100.364 300.613 100.299C300.632 100.235 300.628 100.166 300.602 100.104C300.577 100.041 300.531 99.9893 300.473 99.956C300.415 99.9227 300.347 99.91 300.28 99.92C295.14 101.38 294 90.38 293.16 87.06C278.96 31.06 276.32 32.68 292.14 27.06C296.14 25.68 301.4 22.1 305.04 25.86C309.04 29.98 310 48.26 313.24 63.24C309.415 64.2747 305.953 66.352 303.24 69.24C297.36 75.78 297.88 86.48 305.96 90.92C309.112 92.5188 312.503 93.5929 316 94.1C317.4 97.28 313.28 98.1 313.48 98.1C315.079 99.3324 316.292 100.997 316.976 102.896C317.66 104.796 317.787 106.851 317.34 108.82C308.92 110.22 303.88 104.82 298.24 107.4C297.732 106.153 297.698 104.763 298.144 103.492C298.589 102.221 299.484 101.157 300.66 100.5L300.5 100.46Z" fill="#BFDCFF"/>
<path d="M292.92 54.0001C290.6 54.4801 286.72 38.3601 287.8 36.0001C290.907 29.3702 293.049 38.8859 294.816 46.7328C295.086 47.9283 295.346 49.0851 295.6 50.1401C296.14 52.3801 295.4 53.4001 292.92 54.0001Z" fill="white"/>
<path d="M318.36 72.8001C317.981 73.0326 317.552 73.3533 317.092 73.6973C315.732 74.7141 314.1 75.9342 312.68 75.6801C310.78 75.3401 308.08 72.4801 311.8 69.6801C319.8 63.8201 331.44 68.1801 331.94 68.9601C333.78 69.8601 331.94 71.4201 330.56 70.8401C326.395 69.9668 322.055 70.6499 318.36 72.7601V72.8001Z" fill="white"/>
<path d="M300.68 141.82C300.332 142.366 300.112 142.925 299.894 143.481C299.648 144.106 299.404 144.727 298.98 145.32C297.72 147.06 295.96 144.9 295.72 143.46C294.96 139.2 301.06 135.46 301.56 139.32C301.571 140.231 301.259 141.117 300.68 141.82Z" fill="white"/>
<path fill-rule="evenodd" clip-rule="evenodd" d="M210.7 93.9001C211.294 91.7087 212.239 89.6282 213.5 87.7401C210.812 94.2535 210.873 94.2537 212.079 94.257C212.443 94.2579 212.911 94.2592 213.44 94.4401C214.84 94.9401 211.12 95.7801 210.7 93.9001ZM218.88 101.22C218.167 100.681 217.426 100.181 216.66 99.7201C216.12 99.4401 218.48 99.0601 219.46 100.78C219.518 100.857 219.544 100.954 219.531 101.05C219.518 101.145 219.467 101.232 219.39 101.29C219.313 101.348 219.216 101.374 219.121 101.361C219.025 101.348 218.938 101.297 218.88 101.22ZM219.3 85.3801C219.383 86.6282 219.337 87.8817 219.16 89.1201C219.08 89.5201 218.54 89.3801 218.6 89.0401C218.469 87.8236 218.469 86.5966 218.6 85.3801C218.619 85.3015 218.664 85.2316 218.727 85.1816C218.791 85.1316 218.869 85.1044 218.95 85.1044C219.031 85.1044 219.109 85.1316 219.173 85.1816C219.236 85.2316 219.281 85.3015 219.3 85.3801ZM209.26 87.4601C209.115 86.4572 209.183 85.4349 209.46 84.4601C209.481 84.4097 209.515 84.3656 209.559 84.3321C209.602 84.2986 209.653 84.2768 209.708 84.2688C209.762 84.2607 209.817 84.2668 209.868 84.2863C209.92 84.3057 209.965 84.3381 210 84.3801C210.134 85.4135 210.046 86.4637 209.74 87.4601C209.715 87.5015 209.68 87.5358 209.638 87.5596C209.596 87.5834 209.548 87.5959 209.5 87.5959C209.452 87.5959 209.404 87.5834 209.362 87.5596C209.32 87.5358 209.285 87.5015 209.26 87.4601ZM208.3 83.5601C207.36 83.9201 209.86 81.8201 211.58 82.4001C212.185 82.5843 210.981 82.8725 209.819 83.1506C209.214 83.2951 208.622 83.437 208.3 83.5601ZM219.086 79.2578C219.11 79.2508 219.136 79.2516 219.16 79.2601C220.399 80.1711 221.452 81.3118 222.26 82.6201C222.431 83.804 221.117 82.0988 220.059 80.7259C219.634 80.1737 219.249 79.6753 219.02 79.4401C219.006 79.4191 218.999 79.3942 219 79.369C219 79.3437 219.009 79.3193 219.025 79.2994C219.04 79.2794 219.062 79.2649 219.086 79.2578ZM335.53 349.702C351.029 342.71 368.737 334.722 373.26 335.38C379.86 336.32 383.7 348 377.56 353.42C375.413 355.089 373.035 356.437 370.5 357.42C362.132 361.196 354.989 364.542 348.881 367.404C324.768 378.702 316.779 382.445 313.22 375.2C312.814 375.228 312.41 375.12 312.072 374.891C311.735 374.663 311.484 374.328 311.36 373.94C305.6 376.68 304.42 372.6 306.66 371.32C307.85 370.811 309.072 370.383 310.32 370.04C310.131 369.719 310.016 369.36 309.983 368.989C309.951 368.618 310.002 368.245 310.132 367.896C310.262 367.547 310.469 367.232 310.737 366.973C311.005 366.714 311.327 366.518 311.68 366.4C309.8 362.08 314.64 358.74 318.04 357.38C322.658 355.509 328.892 352.697 335.53 349.702ZM306.52 372.12C304.76 374.4 308.1 374.32 309.38 374C314.78 372.66 314.16 370 312.24 370.12C310.213 370.373 308.263 371.055 306.52 372.12ZM311.831 373.686C311.781 373.71 311.742 373.728 311.72 373.74C313.1 376.42 316.64 373.38 315.62 369.36C314.64 365.02 309.16 366.8 310.64 369.9C310.69 369.903 310.809 369.878 310.975 369.843C311.8 369.67 313.773 369.254 314.04 370.92C314.314 372.51 312.368 373.432 311.831 373.686ZM313.72 375.12C316.48 380.58 322.82 378.52 327.72 376.36H327.66C329.36 374.26 331.1 364.66 327.66 360.14C325.14 356.84 323.06 356.24 321.98 356.24C321.305 356.527 320.597 356.796 319.88 357.069C318.6 357.555 317.292 358.052 316.1 358.68C313.62 360.02 310.8 363.16 312.1 366.26C317.06 365.12 318.14 374.18 313.72 375.12ZM338.561 371.505C349.257 366.746 373.103 356.134 376.42 353.58H376.36C380.78 350.18 381.02 344.8 378.56 340.04C376.1 335.28 372.02 335.36 367.5 337C357.1 340.76 331.42 352 328.8 353.24C334.34 354.92 339.18 365.22 333.92 373.58C334.713 373.218 336.358 372.486 338.561 371.505ZM326.2 182C323 181.44 319.34 186.74 321.82 188.36C324.3 189.98 329.58 182.48 326.2 182ZM321.58 187.12C322.28 190.16 326.3 185.82 326.8 184.82V184.72C326.96 184.38 327.38 182.26 325.96 182.28C323.98 182.16 321.02 184.8 321.58 187.12ZM299.32 145.44C297.64 148.46 292.8 143.66 296.56 139.04C299.48 135.44 303.58 137.48 301.64 141.28C301.447 141.655 301.22 141.996 300.989 142.342C300.789 142.642 300.586 142.946 300.4 143.28C300.2 143.64 300.03 144 299.86 144.36C299.69 144.72 299.52 145.08 299.32 145.44ZM299.894 143.481C300.112 142.925 300.332 142.366 300.68 141.82C301.259 141.117 301.571 140.231 301.56 139.32C301.06 135.46 294.96 139.2 295.72 143.46C295.96 144.9 297.72 147.06 298.98 145.32C299.404 144.727 299.648 144.106 299.894 143.481ZM321.18 66.1801C322.48 66.1801 335.54 67.1001 333.02 70.8001C332.264 72.001 330.2 71.5973 328.596 71.2836C328.036 71.1741 327.533 71.0756 327.16 71.0601C323.073 70.8673 319.818 72.6998 317.153 74.2003C314.287 75.8133 312.103 77.0428 310.3 74.9601C306.82 70.9401 313.7 66.1801 321.18 66.1801ZM317.092 73.6973C317.552 73.3533 317.981 73.0326 318.36 72.8001V72.7601C322.055 70.6499 326.395 69.9668 330.56 70.8401C331.94 71.4201 333.78 69.8601 331.94 68.9601C331.44 68.1801 319.8 63.8201 311.8 69.6801C308.08 72.4801 310.78 75.3401 312.68 75.6801C314.1 75.9342 315.732 74.7141 317.092 73.6973ZM287.18 39.7801C286.8 37.9801 287.28 31.5801 290.7 33.5801C292.904 34.8959 293.59 38.6502 294.093 41.3995C294.178 41.8679 294.258 42.3071 294.34 42.7001C295.169 45.7157 295.837 48.7734 296.34 51.8601C296.24 53.7801 293.48 54.3401 292.88 54.3401C291.335 54.3401 290.796 52.5001 290.354 50.9864C290.235 50.5802 290.123 50.1975 290 49.8801C288.801 46.591 287.859 43.2143 287.18 39.7801ZM287.8 36.0001C286.72 38.3601 290.6 54.4801 292.92 54.0001C295.4 53.4001 296.14 52.3801 295.6 50.1401C295.346 49.0851 295.086 47.9283 294.816 46.7328C293.049 38.8859 290.907 29.3702 287.8 36.0001Z" fill="black"/>
<path d="M346 126.4C344.24 135.66 340.56 138.72 339.84 139.48C339.12 140.24 338.72 140.74 338.58 139.24C338.3 136.22 342.24 119.56 343.42 118.36C347.14 114.7 347.02 121.38 346 126.4Z" fill="white"/>
<path d="M326.8 184.82C326.3 185.82 322.28 190.16 321.58 187.12C321.02 184.8 323.98 182.16 325.96 182.28C327.38 182.26 326.96 184.38 326.8 184.72V184.82Z" fill="white"/>
</svg>
