<svg width="271" height="297" viewBox="0 0 271 297" fill="none" xmlns="http://www.w3.org/2000/svg">
<path d="M158.823 20.1689C156.673 22.4513 155.23 25.2888 154.663 28.3489C154.351 30.1894 153.831 54.6476 156.971 56.9789C160.757 59.8419 166.602 51.5801 172.8 52.0504C183.803 53.2774 191.25 67.4083 184.157 78.7785C179.602 86.0996 169.805 89.842 165.541 87.388C164.196 86.191 162.553 85.3655 160.778 84.9954C152.666 84.1774 156.243 101.989 155.973 107.49C155.744 111.703 155.349 119.576 163.191 122.317C169.431 124.362 176.045 123.053 181.911 121.54C188.483 119.822 196.991 117.45 199.32 123.809C199.341 123.854 199.352 123.903 199.352 123.953C199.352 124.002 199.341 124.051 199.32 124.096C198.414 125.308 197.627 126.602 196.97 127.961C193.746 134.525 194.203 136.816 196.97 141.662C210.781 160.66 236.24 137.572 224.863 123.748C224.248 123.231 223.756 122.587 223.422 121.863C223.088 121.139 222.919 120.351 222.928 119.556C223.698 116.182 227.712 115.466 230.645 115.016L249.843 111.826C265.277 109.781 265.235 105.261 265.797 93.6253C267.031 70.081 266.975 46.4885 265.631 22.9501C265.319 16.8151 264.882 8.63506 258.163 4.54506C253.525 1.82521 228.378 6.59006 207.37 9.59621C193.642 11.5185 179.456 13.3999 169.451 15.5267C164.771 16.5492 161.485 17.4081 158.76 20.1689H158.823Z" fill="#FFC8CC"/>
<path fill-rule="evenodd" clip-rule="evenodd" d="M249.303 0.352807C251.632 1.02766 258.517 1.74341 262.261 5.97656C267.399 11.7844 266.962 19.6985 267.419 26.9378C268.834 55.9973 267.565 73.3798 267.565 84.7909C267.565 89.658 267.399 94.6682 266.879 99.5967C266.171 106.427 263.155 110.149 256.479 112.01C250.8 113.175 231.664 116.202 231.519 116.243C229.317 116.303 227.185 117.016 225.403 118.288C223.795 119.828 224.844 121.108 226.037 122.564L226.069 122.603C235.055 133.503 223.24 150.231 209.658 150.231C203.418 150.231 193.871 144.771 188.858 136.386C187.773 134.256 187.237 131.896 187.298 129.515C186.971 126.816 187.395 124.081 188.525 121.601C175.733 123.871 155.744 130.844 149.879 109.617C149.879 109.392 150.087 92.6641 150.087 92.4596C150.232 84.2796 150.295 82.4187 152.167 80.844C153.23 79.9778 154.521 79.4248 155.89 79.2489C160.279 78.4718 162.13 81.2939 166.103 81.8052C186.071 84.4228 184.115 51.1302 170.762 53.9114C165.999 54.8521 161.589 60.394 157.575 59.0239C152.936 57.4697 151.896 52.8889 150.586 51.1915C150.274 50.8234 149.296 24.8315 149.65 23.1955C149.65 23.1955 150.627 15.8335 160.05 13.5022L166.312 11.7879C166.643 11.3642 242.667 0.414162 242.667 0.414162C243.495 0.352807 247.243 0.116681 249.303 0.352807ZM154.663 28.3489C155.23 25.2888 156.673 22.4513 158.823 20.1689H158.76C161.485 17.4081 164.771 16.5492 169.451 15.5267C179.456 13.3999 193.642 11.5185 207.37 9.59621C228.378 6.59006 253.525 1.82521 258.163 4.54506C264.882 8.63506 265.319 16.8151 265.631 22.9501C266.975 46.4885 267.031 70.081 265.797 93.6253C265.235 105.261 265.277 109.781 249.843 111.826L230.645 115.016C227.712 115.466 223.698 116.182 222.928 119.556C222.919 120.351 223.088 121.139 223.422 121.863C223.756 122.587 224.248 123.231 224.863 123.748C236.24 137.572 210.781 160.66 196.97 141.662C194.203 136.816 193.746 134.525 196.97 127.961C197.627 126.602 198.414 125.308 199.32 124.096C199.341 124.051 199.352 124.002 199.352 123.953C199.352 123.903 199.341 123.854 199.32 123.809C196.991 117.45 188.483 119.822 181.911 121.54C176.045 123.053 169.431 124.362 163.191 122.317C155.349 119.576 155.744 111.703 155.973 107.49C156.243 101.989 152.666 84.1774 160.778 84.9954C162.553 85.3655 164.196 86.191 165.541 87.388C169.805 89.842 179.602 86.0996 184.157 78.7785C191.25 67.4083 183.803 53.2774 172.8 52.0504C166.602 51.5801 160.757 59.8419 156.971 56.9789C153.831 54.6476 154.351 30.1894 154.663 28.3489Z" fill="black"/>
<path d="M114.29 131.846C111.419 140.026 114.019 148.697 114.019 156.877C114.019 161.765 112.896 173.237 102.08 174.423C98.4818 174.791 81.9666 176.202 81.9666 176.202C77.141 176.775 73.3554 176.489 75.9138 172.399C86.9586 152.399 64.0786 139.086 49.5186 151.478C40.1794 159.474 42.5922 171.478 47.0018 174.178C48.2498 174.934 49.8306 175.425 50.5586 176.673C51.8482 179.188 48.8322 179.495 45.9618 179.495C35.645 179.863 11.4754 184.853 10.3314 173.053C8.45942 125.957 8.35538 112.521 8.56339 85.9361C8.45711 83.1331 9.25824 80.3692 10.8514 78.0424C14.0417 73.5179 23.44 71.4235 31.6407 70.3402C31.5761 70.2471 34.908 69.7838 43.8898 68.5566C53.3632 67.2622 69.1219 65.1181 93.81 61.6625L95.9227 61.3667C100.592 60.8219 105.702 61.0032 109.88 63.6047C115.351 67.8378 114.456 76.6109 114.248 83.298C113.541 102.03 113.915 100.537 113.707 100.537C113.729 101.031 113.878 101.511 114.14 101.932C114.401 102.354 114.767 102.703 115.203 102.948C115.639 103.193 116.131 103.326 116.634 103.333C117.136 103.341 117.632 103.223 118.075 102.991C119.135 101.235 120.595 99.7439 122.339 98.6355C137.835 90.0669 149.005 110.353 140.123 122.419C138.037 125.261 135.078 127.369 131.682 128.433C128.286 129.497 124.632 129.46 121.258 128.329C117.971 127.286 115.787 127.552 114.29 131.846Z" fill="#D9F3FF"/>
<path d="M116.583 231.419C118.156 235.28 121.202 238.384 125.069 240.069C129.195 241.365 133.672 241.027 137.549 239.129C141.231 237.411 143.041 235.141 146.327 236.204C146.387 236.225 146.44 236.264 146.477 236.315C146.514 236.366 146.534 236.428 146.535 236.491C146.535 262.258 144.829 266 148.615 271.726C149.613 273.28 153.087 276.818 163.529 276C169.041 275.571 223.849 268.822 235.975 267.309C243.828 266.016 248.392 264.67 249.952 260.744C251.512 256.819 251.512 251.889 251.512 251.889L252.089 239.093L252.589 205.093L252.032 178.78L251.512 167.533C251.512 167.533 251.127 162.083 249.703 159.926C248.279 157.769 248.171 157.776 246.978 157.186C242.589 155.141 238.284 155.693 234.165 156.143C234.02 156.143 219.023 158.188 215.612 159.128C214.774 159.262 213.981 159.591 213.301 160.09C212.62 160.588 212.071 161.24 211.701 161.991C211.327 163.034 211.909 163.832 213.053 166.756C215.279 172.441 216.693 179.476 214.031 184.936C204.879 200.519 176.924 190.417 183.913 171.705C185.722 168.985 185.993 166.94 184.828 165.57C180.023 160.335 154.127 166.858 151.548 168.188C150.346 168.8 149.239 169.578 148.261 170.498C147.466 171.454 146.866 172.551 146.493 173.73C145.516 176.777 144.975 192.421 145.141 211.746C145.142 211.804 145.127 211.861 145.098 211.911C145.068 211.962 145.026 212.003 144.975 212.032C144.476 212.298 142.749 209.987 136.655 208.454C133.266 207.427 129.622 207.576 126.332 208.876C123.042 210.175 120.305 212.545 118.58 215.591C115.189 221.399 114.607 226.736 116.5 231.399L116.583 231.419Z" fill="#D9F3FF"/>
<path d="M114.56 213.074L115.122 212.235C115.521 204.208 115.215 196.162 114.207 188.186C114.088 185.287 113.512 182.425 112.501 179.699C108.965 172.521 87.8114 177.532 81.0514 177.797C78.597 178.084 75.8306 178.227 74.229 176.386C72.6274 174.546 73.813 172.808 74.645 171.294C75.9147 169.209 76.7326 166.889 77.0476 164.478C77.3626 162.068 77.1678 159.619 76.4754 157.286C68.717 140.926 42.509 148.574 44.8386 166.652C45.6914 173.81 48.9986 172.44 51.349 174.996C51.8362 175.464 52.1816 176.056 52.3469 176.706C52.5121 177.356 52.4907 178.038 52.285 178.677C51.453 180.722 48.9986 180.722 47.2306 180.926C42.093 181.233 30.6946 182.133 17.9026 183.38C13.1186 183.83 12.4322 184.546 11.3298 185.732C10.7638 186.346 10.2877 187.034 9.91541 187.777L9.27994 189.413L8.75995 191.969C8.58572 193.063 8.31381 194.506 8.31381 194.771V197.081V200.19C8.12661 216.816 7.253 270.825 7.461 277.041C7.7936 280.387 8.68616 283.655 10.1026 286.714C10.1026 286.714 9.08266 286.039 10.1026 286.796C10.6427 288.084 11.6827 288.595 12.7227 289.618C13.7627 290.64 16.3627 292.685 17.9227 293.196C19.4827 293.708 20.0027 293.831 23.1227 294.219C26.2427 294.607 28.9474 294.403 28.9474 294.403C34.709 293.769 43.0082 292.849 46.9602 292.358C64.6818 290.264 66.3174 290.17 65.96 290.129L69.1122 289.741C78.6594 288.882 99.4386 284.771 102.059 284.158C113.375 281.52 114.539 271.009 114.539 259.618C114.539 248.227 115.309 244.608 113.458 243.074C113.133 242.847 112.762 242.693 112.37 242.622C111.979 242.551 111.576 242.566 111.191 242.665C108.934 243.115 106.805 244.043 104.951 245.385C96.2146 251.152 81.821 247.839 75.9762 241.642C72.6156 238.381 70.6067 234.008 70.3394 229.372V224.689L71.16 221.621L72.2 218.554L74.8 215.486L77.765 212.685C80.3504 210.255 83.5956 208.613 87.1092 207.956C90.6228 207.3 94.2547 207.656 97.5666 208.984C99.6458 209.818 101.282 210.599 101.84 210.885L102.88 211.396L103.931 211.847C107.187 213.567 110.987 214.006 114.56 213.074Z" fill="#98C7FF"/>
<path fill-rule="evenodd" clip-rule="evenodd" d="M7.93939 290.906C4.65852 287.841 2.60651 283.719 2.15698 279.291C1.38738 270.722 1.59542 246.959 1.24182 227.246C1.07542 217.021 0.701021 199.147 1.24182 194.771L1.26556 194.6C1.81327 190.655 2.89953 182.83 9.56183 180.19C7.4355 178.605 5.78289 176.486 4.7778 174.055C3.94599 170.738 3.39634 167.359 3.13458 163.953C2.67698 149.127 0.513805 98.247 1.94901 85.6089L1.97266 85.3995C2.62383 79.6346 3.02021 76.1257 5.6098 73.1957C8.43544 69.8687 17.3221 66.6769 26.7627 65.69L50.1627 62.5004C57.096 61.689 72.4402 59.7128 89.4962 57.6678C91.9896 57.2753 94.5187 57.1263 97.0466 57.2243C113.333 57.9196 115.101 67.9605 115.767 72.8072C116.075 75.5644 116.123 78.3438 115.912 81.1098C115.912 81.1098 115.392 94.4228 115.247 97.6744C116.661 96.0636 118.552 94.9269 120.655 94.4228C150.107 89.2081 153.165 129.781 127.248 130.762C120.447 130.762 118.741 127.879 116.744 130.067C110.504 139.208 118.367 155.159 113.687 166.877C112.689 169.682 110.882 172.141 108.487 173.953C112.272 174.955 114.581 178.697 115.371 185.098C116.665 193.343 117.187 201.688 116.931 210.027C123.171 203.196 132.24 202.685 140.352 206.325C140.352 202.235 140.352 186.346 141.122 175.855C141.642 169.229 144.554 165.834 150.211 163.728C158.885 160.497 174.984 158.104 181.411 161.56C183.566 162.585 185.435 164.108 186.861 165.998C187.922 168.595 186.341 170.824 185.426 173.012C179.623 187.634 197.719 195.016 206.371 186.448C208.353 184.111 209.614 181.265 210.004 178.247C210.395 175.229 209.899 172.163 208.576 169.413C205.415 162.071 204.936 159.801 210.802 156.836C213.995 155.322 217.428 154.354 220.952 153.973C233.432 151.928 246.682 151.131 251.154 160.108C251.154 160.108 251.403 160.271 251.923 162.827C252.443 165.384 252.84 167 252.963 174C253.085 181 252.963 177.143 252.963 177.143L253.483 193.503L253.5 204V215.5L253.483 225.2V234.914V242.622V252.296C253.483 253.319 253.099 258.491 252.963 259.618C252.826 260.745 252.443 261.499 251.923 262.521C251.403 263.544 250.363 264.566 249.323 265.589C248.283 266.611 248.283 266.611 247.243 267.122C246.203 267.634 240.613 268.332 236.365 269.107C233.64 269.434 172.779 276.96 164.792 277.88C157.575 278.698 149.879 278.555 145.219 273.422C142.141 270.027 141.871 265.937 141.579 261.152C141.122 253.933 140.81 246.653 140.623 239.516C130.576 245.528 120.363 242.972 113.208 232.603C109.922 227.552 110.816 220.109 113.666 214.648C111.909 215.069 110.084 215.141 108.298 214.86C106.512 214.579 104.701 213.606 103.266 213.012C101.885 212.441 100.879 211.946 99.8785 211.455L99.76 211.396C98.72 210.885 98.3651 211.051 97.4834 210.524C96.635 210.165 96.8758 210.324 96.0274 209.965C93.0741 209.015 89.9152 208.862 86.8815 209.524C83.8478 210.186 81.051 211.638 78.7842 213.728V213.81L74.8 218.043L72.72 222.133L71.9202 226.223V229.802C72.2217 232.981 73.5066 235.993 75.6018 238.432C80.2402 243.585 85.1282 243.135 91.5554 242.91C97.1506 242.256 98.981 239.454 104.93 238.227C110.879 237 116.328 239.311 116.287 245.119C116.287 245.119 116.287 258.779 116.141 263.299C116.141 269.434 114.935 280.518 106.095 284.444C93.844 287.245 81.4505 289.402 68.9666 290.906L61.9945 291.953L52.5074 293.196L47.0226 293.831C42.5298 294.403 33.5026 295.426 27.9698 295.876C27.9698 295.876 21.5627 296.264 18.4427 296.264C15.3227 296.264 10.934 293.246 7.93939 290.906ZM125.069 240.069C121.202 238.384 118.156 235.28 116.583 231.419L116.5 231.399C114.607 226.736 115.189 221.399 118.58 215.591C120.305 212.545 123.042 210.175 126.332 208.876C129.622 207.576 133.266 207.427 136.655 208.454C142.749 209.987 144.476 212.298 144.975 212.032C145.026 212.003 145.068 211.962 145.098 211.911C145.127 211.861 145.142 211.804 145.141 211.746C144.975 192.421 145.516 176.777 146.493 173.73C146.866 172.551 147.466 171.454 148.261 170.498C149.239 169.578 150.346 168.8 151.548 168.188C154.127 166.858 180.023 160.335 184.828 165.57C185.993 166.94 185.722 168.985 183.913 171.705C176.924 190.417 204.879 200.519 214.031 184.936C216.693 179.476 215.279 172.441 213.053 166.756C211.909 163.832 211.327 163.034 211.701 161.991C212.071 161.24 212.62 160.588 213.301 160.09C213.981 159.591 214.774 159.262 215.612 159.128C219.023 158.188 234.02 156.143 234.165 156.143C238.284 155.693 242.589 155.141 246.978 157.186C248.171 157.776 248.279 157.769 249.703 159.926C251.127 162.083 251.512 167.533 251.512 167.533L252.032 178.78L252.589 205.093L252.089 239.093L251.512 251.889C251.512 251.889 251.512 256.819 249.952 260.744C248.392 264.67 243.828 266.016 235.975 267.309C223.849 268.822 169.041 275.571 163.529 276C153.087 276.818 149.613 273.28 148.615 271.726C144.829 266 146.535 262.258 146.535 236.491C146.534 236.428 146.514 236.366 146.477 236.315C146.44 236.264 146.387 236.225 146.327 236.204C143.041 235.141 141.231 237.411 137.549 239.129C133.672 241.027 129.195 241.365 125.069 240.069ZM114.019 156.877C114.019 148.697 111.419 140.026 114.29 131.846C115.787 127.552 117.971 127.286 121.258 128.329C124.632 129.46 128.286 129.497 131.682 128.433C135.078 127.369 138.037 125.261 140.123 122.419C149.005 110.353 137.835 90.0669 122.339 98.6355C120.595 99.7439 119.135 101.235 118.075 102.991C117.632 103.223 117.136 103.341 116.634 103.333C116.131 103.326 115.639 103.193 115.203 102.948C114.767 102.703 114.401 102.354 114.14 101.932C113.878 101.511 113.729 101.031 113.707 100.537C113.915 100.537 113.541 102.03 114.248 83.298C114.456 76.6109 115.351 67.8378 109.88 63.6047C105.702 61.0032 100.592 60.8219 95.9227 61.3667C95.2064 61.4502 94.5005 61.5509 93.81 61.6625C69.1219 65.1181 53.3632 67.2622 43.8898 68.5566C34.908 69.7838 31.5761 70.2471 31.6407 70.3402C23.44 71.4235 14.0417 73.5179 10.8514 78.0424C9.25824 80.3692 8.45711 83.1331 8.56339 85.9361C8.35538 112.521 8.45942 125.957 10.3314 173.053C11.4754 184.853 35.645 179.863 45.9618 179.495C48.8322 179.495 51.8482 179.188 50.5586 176.673C49.8306 175.425 48.2498 174.934 47.0018 174.178C42.5922 171.478 40.1794 159.474 49.5186 151.478C64.0786 139.086 86.9586 152.399 75.9138 172.399C73.3554 176.489 77.141 176.775 81.9666 176.202C81.9666 176.202 98.4818 174.791 102.08 174.423C112.896 173.237 114.019 161.765 114.019 156.877ZM115.122 212.235L114.56 213.074C110.987 214.006 107.187 213.567 103.931 211.847L102.88 211.396L101.84 210.885C101.282 210.599 99.6458 209.818 97.5666 208.984C94.2547 207.656 90.6228 207.3 87.1092 207.956C83.5956 208.613 80.3504 210.255 77.765 212.685L74.8 215.486L72.2 218.554L71.16 221.621L70.3394 224.689V229.372C70.6067 234.008 72.6156 238.381 75.9762 241.642C81.821 247.839 96.2146 251.152 104.951 245.385C106.805 244.043 108.934 243.115 111.191 242.665C111.576 242.566 111.979 242.551 112.37 242.622C112.762 242.693 113.133 242.847 113.458 243.074C115.309 244.608 114.539 248.227 114.539 259.618C114.539 271.009 113.375 281.52 102.059 284.158C99.4386 284.771 78.6594 288.882 69.1122 289.741L65.96 290.129C66.3174 290.17 64.6818 290.264 46.9602 292.358C43.0082 292.849 34.709 293.769 28.9474 294.403C28.9474 294.403 26.2427 294.607 23.1227 294.219C20.0027 293.831 19.4827 293.708 17.9227 293.196C16.3627 292.685 13.7627 290.64 12.7227 289.618C11.6827 288.595 10.6427 288.084 10.1026 286.796C9.08266 286.039 10.1026 286.714 10.1026 286.714C8.68616 283.655 7.7936 280.387 7.461 277.041C7.253 270.825 8.12661 216.816 8.31381 200.19V197.081V194.771C8.31381 194.506 8.58572 193.063 8.75995 191.969L9.27994 189.413L9.91541 187.777C10.2877 187.034 10.7638 186.346 11.3298 185.732C12.4322 184.546 13.1186 183.83 17.9026 183.38C30.6946 182.133 42.093 181.233 47.2306 180.926C48.9986 180.722 51.453 180.722 52.285 178.677C52.4907 178.038 52.5121 177.356 52.3469 176.706C52.1816 176.056 51.8362 175.464 51.349 174.996C48.9986 172.44 45.6914 173.81 44.8386 166.652C42.509 148.574 68.717 140.926 76.4754 157.286C77.1678 159.619 77.3626 162.068 77.0476 164.478C76.7326 166.889 75.9147 169.209 74.645 171.294C73.813 172.808 72.6274 174.546 74.229 176.386C75.8306 178.227 78.597 178.084 81.0514 177.797C87.8114 177.532 108.965 172.521 112.501 179.699C113.512 182.425 114.088 185.287 114.207 188.186C115.215 196.162 115.521 204.208 115.122 212.235Z" fill="black"/>
<path d="M207.608 69.9818C207.993 69.9481 208.262 69.8108 208.415 69.5699C208.58 69.3145 208.695 69.0167 208.759 68.6765L211.269 68.4569C211.259 68.953 211.174 69.4289 211.013 69.8847C210.851 70.3272 210.617 70.7223 210.313 71.0702C210.022 71.4168 209.659 71.7029 209.224 71.9284C208.802 72.1527 208.338 72.2869 207.834 72.3311L206.12 72.481C205.589 72.5275 205.076 72.472 204.58 72.3146C204.083 72.1439 203.64 71.8949 203.25 71.5677C202.86 71.2404 202.538 70.847 202.283 70.3874C202.042 69.9267 201.898 69.424 201.85 68.8794L201.355 63.2211C201.307 62.6765 201.362 62.1564 201.52 61.6608C201.689 61.1507 201.938 60.7007 202.265 60.3107C202.592 59.9207 202.986 59.6051 203.447 59.3641C203.906 59.1097 204.402 58.9593 204.933 58.9128L206.647 58.7629C207.165 58.7176 207.651 58.7687 208.106 58.9163C208.56 59.0639 208.961 59.2898 209.309 59.594C209.669 59.8837 209.968 60.239 210.206 60.6599C210.443 61.0808 210.611 61.5413 210.708 62.0414L208.197 62.261C208.101 61.9215 207.949 61.6403 207.742 61.4175C207.535 61.1947 207.233 61.1007 206.834 61.1356L205.161 61.282C204.696 61.3227 204.338 61.5212 204.088 61.8777C203.852 62.233 203.754 62.6498 203.796 63.1279L204.269 68.5273C204.311 69.0055 204.479 69.4056 204.775 69.7277C205.083 70.0354 205.47 70.1689 205.935 70.1282L207.608 69.9818ZM216.486 61.3552C217.071 61.3041 217.597 61.3517 218.065 61.4982C218.545 61.6302 218.958 61.8416 219.305 62.1325C219.665 62.4222 219.951 62.7854 220.163 63.2219C220.375 63.6584 220.506 64.1622 220.556 64.7333L220.795 67.4629C220.844 68.0208 220.802 68.5397 220.67 69.0197C220.537 69.4864 220.319 69.9003 220.016 70.2615C219.725 70.6081 219.355 70.8881 218.905 71.1015C218.468 71.3137 217.958 71.4453 217.373 71.4965L216.557 71.5679C215.985 71.6179 215.46 71.5769 214.98 71.4449C214.5 71.3129 214.08 71.102 213.72 70.8123C213.372 70.5081 213.092 70.1378 212.88 69.7013C212.68 69.2503 212.555 68.7459 212.507 68.188L212.268 65.4585C212.218 64.8873 212.253 64.369 212.373 63.9034C212.506 63.4367 212.718 63.03 213.009 62.6833C213.313 62.3355 213.69 62.0549 214.14 61.8416C214.588 61.6149 215.098 61.4766 215.669 61.4267L216.486 61.3552ZM215.87 63.7179C215.458 63.7539 215.118 63.9242 214.85 64.2287C214.595 64.5188 214.486 64.8829 214.524 65.3213L214.751 67.9114C214.789 68.3497 214.96 68.6961 215.263 68.9507C215.58 69.204 215.944 69.3127 216.356 69.2767L217.173 69.2052C217.598 69.168 217.931 68.9983 218.172 68.6962C218.427 68.3928 218.535 68.022 218.497 67.5837L218.27 64.9936C218.232 64.5552 218.061 64.2154 217.759 63.9742C217.469 63.7185 217.112 63.6093 216.687 63.6464L215.87 63.7179ZM224.796 65.3261L225.275 70.8052L222.745 71.0265L221.558 57.4584L227.375 56.9494C227.893 56.9041 228.387 56.9613 228.856 57.121C229.324 57.2674 229.732 57.4927 230.079 57.7969C230.441 58.0999 230.734 58.4691 230.959 58.9044C231.198 59.3386 231.34 59.8081 231.384 60.3128L231.436 60.9105C231.48 61.4153 231.422 61.9022 231.263 62.3712C231.115 62.8258 230.89 63.2403 230.588 63.6147C230.299 63.9746 229.936 64.2674 229.501 64.4928C229.066 64.7183 228.589 64.8537 228.071 64.899L227.393 64.9583L232.487 70.1742L229.598 70.4269L224.796 65.3261ZM224.295 59.6079L224.576 62.8157L227.465 62.5629C228.036 62.513 228.442 62.3369 228.684 62.0347C228.925 61.7325 229.023 61.3291 228.979 60.8243C228.937 60.3462 228.771 59.9726 228.48 59.7036C228.187 59.4214 227.755 59.3052 227.184 59.3552L224.295 59.6079ZM233.079 63.5373C233.036 63.0459 233.089 62.5795 233.238 62.1382C233.386 61.6836 233.598 61.2769 233.874 60.9181C234.151 60.5593 234.48 60.2695 234.862 60.0487C235.243 59.8146 235.633 59.6801 236.031 59.6452L238.303 59.4465C238.821 59.4012 239.289 59.474 239.707 59.6649C240.137 59.8414 240.501 60.0907 240.796 60.4128C241.104 60.7205 241.35 61.0805 241.533 61.4927C241.729 61.8905 241.844 62.2887 241.879 62.6872L242.104 65.2573L235.648 65.8221L235.695 66.3601C235.737 66.8382 235.9 67.1653 236.183 67.3413C236.466 67.5173 236.826 67.5861 237.265 67.5478L241.907 67.1416L242.102 69.3731L236.942 69.8246C236.49 69.8641 236.058 69.8149 235.644 69.6771C235.229 69.526 234.856 69.3111 234.524 69.0323C234.205 68.7524 233.94 68.4075 233.731 67.9975C233.521 67.5876 233.394 67.1302 233.35 66.6255L233.079 63.5373ZM235.503 63.9276L239.627 63.5668L239.618 63.4671C239.573 62.9491 239.403 62.5357 239.108 62.2269C238.812 61.9048 238.438 61.7635 237.987 61.803L236.752 61.9111C236.539 61.9297 236.351 61.9996 236.188 62.121C236.023 62.2291 235.888 62.3681 235.783 62.5379C235.677 62.7078 235.594 62.9091 235.534 63.1418C235.486 63.3602 235.473 63.5889 235.494 63.828L235.503 63.9276ZM249.984 66.5555L246.338 66.8745L246.021 68.9901L243.61 69.201L245.91 55.3278L248.5 55.1012L253.034 68.3765L250.643 68.5857L249.984 66.5555ZM246.64 64.8203L249.35 64.5832L247.61 59.1542L247.47 59.1664L246.64 64.8203Z" fill="#303030"/>
</svg>
